# Blender v2.90.1 OBJ File: 'Needle.blend'
# www.blender.org
mtllib NeedleLeft.mtl
o Plane
v 0.064252 -1.101926 -0.000121
v -0.104617 -1.086475 -0.000365
v 0.116224 -1.144940 -0.000030
v 0.100955 -1.115864 -0.000064
v 0.040785 -1.105062 -0.000153
v 0.020013 -1.117767 -0.000177
v -0.104645 -1.086450 0.024260
v 0.100927 -1.115838 0.024561
v 0.064224 -1.101900 0.024504
v 0.019985 -1.117741 0.024448
v 0.116196 -1.144914 0.024594
v 0.040757 -1.105036 0.024472
v -1.696288 -0.650714 -0.002602
v 0.031401 -1.214791 -0.000121
v -0.119382 -1.137204 -0.000365
v 0.098339 -1.206388 -0.000030
v 0.069851 -1.222728 -0.000064
v 0.113794 -1.177559 -0.000020
v 0.013283 -1.199551 -0.000153
v 0.002574 -1.177683 -0.000177
v -0.119419 -1.137210 0.024260
v -1.696321 -0.650704 0.022022
v 0.069814 -1.222734 0.024561
v 0.031364 -1.214798 0.024504
v 0.002537 -1.177690 0.024448
v 0.113762 -1.177550 0.024604
v 0.098301 -1.206394 0.024594
v 0.013246 -1.199558 0.024472
vt 0.480469 0.414062
vt 0.480469 0.414062
vt 0.480469 0.414062
vt 0.480469 0.414062
vt 0.480469 0.414062
vt 0.480469 0.414062
vt 0.480469 0.414062
vt 0.480469 0.414062
vt 0.480469 0.414062
vt 0.480469 0.414062
vt 0.480469 0.414062
vt 0.480469 0.414062
vt 0.480469 0.414062
vt 0.480469 0.414062
vt 0.480469 0.414062
vt 0.480469 0.414062
vt 0.480469 0.414062
vt 0.480469 0.414062
vt 0.480469 0.414062
vt 0.480469 0.414062
vt 0.480469 0.414062
vt 0.480469 0.414062
vt 0.480469 0.414062
vt 0.480469 0.414062
vt 0.480469 0.414062
vt 0.480469 0.414062
vt 0.480469 0.414062
vt 0.480469 0.414062
vn 0.0014 -0.0004 -1.0000
vn -0.0014 0.0004 1.0000
vn -0.5218 0.8531 -0.0015
vn 0.8853 0.4649 0.0005
vn 0.3550 0.9349 -0.0006
vn -0.1325 0.9912 -0.0012
vn 0.9972 -0.0743 0.0014
vn 0.2435 0.9699 -0.0007
vn 0.2641 0.9645 -0.0007
vn -0.8981 -0.4398 -0.0015
vn 0.4975 -0.8674 0.0005
vn -0.2021 -0.9794 -0.0006
vn -0.6437 -0.7653 -0.0012
vn 0.8813 -0.4725 0.0014
vn -0.3150 -0.9491 -0.0007
vn -0.2948 -0.9556 -0.0007
vn 0.0011 -0.0012 -1.0000
vn -0.0011 0.0012 1.0000
vn 0.9972 -0.0744 0.0012
vn 0.2640 0.9645 -0.0000
vn 0.0016 0.0004 -1.0000
vn -0.0016 -0.0004 1.0000
vn 0.8814 -0.4724 0.0012
vn -0.2948 -0.9556 -0.0000
usemtl Material.001
s off
f 18/1/1 2/2/1 6/3/1
f 12/4/2 10/5/2 26/6/2
f 5/7/3 10/5/3 12/4/3
f 4/8/4 11/9/4 3/10/4
f 4/8/5 9/11/5 8/12/5
f 1/13/6 12/4/6 9/11/6
f 3/10/7 26/6/7 18/1/7
f 6/3/8 7/14/8 10/5/8
f 13/15/9 7/14/9 2/2/9
f 19/16/1 20/17/1 18/1/1
f 26/6/2 21/18/2 25/19/2
f 19/16/10 25/19/10 20/17/10
f 27/20/11 17/21/11 16/22/11
f 17/21/12 24/23/12 14/24/12
f 14/24/13 28/25/13 19/16/13
f 26/6/14 16/22/14 18/1/14
f 20/17/15 21/18/15 15/26/15
f 21/18/16 13/15/16 15/26/16
f 6/3/1 5/7/1 18/1/1
f 5/7/1 1/13/1 18/1/1
f 1/13/1 4/8/1 3/10/1
f 18/1/17 13/15/17 2/2/17
f 1/13/1 3/10/1 18/1/1
f 7/14/18 22/27/18 26/6/18
f 26/6/2 11/9/2 9/11/2
f 11/9/2 8/12/2 9/11/2
f 9/11/2 12/4/2 26/6/2
f 10/5/2 7/14/2 26/6/2
f 5/7/3 6/3/3 10/5/3
f 4/8/4 8/12/4 11/9/4
f 4/8/5 1/13/5 9/11/5
f 1/13/6 5/7/6 12/4/6
f 3/10/19 11/9/19 26/6/19
f 6/3/8 2/2/8 7/14/8
f 13/15/20 22/27/20 7/14/20
f 15/26/21 13/15/21 18/1/21
f 18/1/1 16/22/1 14/24/1
f 16/22/1 17/21/1 14/24/1
f 14/24/1 19/16/1 18/1/1
f 20/17/1 15/26/1 18/1/1
f 25/19/2 28/25/2 26/6/2
f 28/25/2 24/23/2 26/6/2
f 24/23/2 23/28/2 27/20/2
f 26/6/22 22/27/22 21/18/22
f 24/23/2 27/20/2 26/6/2
f 19/16/10 28/25/10 25/19/10
f 27/20/11 23/28/11 17/21/11
f 17/21/12 23/28/12 24/23/12
f 14/24/13 24/23/13 28/25/13
f 26/6/23 27/20/23 16/22/23
f 20/17/15 25/19/15 21/18/15
f 21/18/24 22/27/24 13/15/24
