# Blender v2.90.1 OBJ File: 'Track2Terrain.blend'
# www.blender.org
mtllib Round2.mtl
o RoundRock_Icosphere.006
v 93.992683 -0.595122 -132.412201
v 92.374588 -0.595123 -132.937958
v 91.640945 -0.147526 -136.301361
v 94.018356 -0.570585 -137.045837
v 95.171341 -0.199173 -134.834686
v 93.873108 1.593374 -135.377167
v 95.336998 -1.338711 -134.260895
v 95.814400 -1.356472 -135.464050
v 93.251816 -1.351087 -132.614670
v 94.202919 -1.351087 -132.923706
v 91.712906 -1.351087 -133.732758
v 92.300720 -1.351087 -132.923706
v 92.186111 -1.221854 -136.408539
v 91.862518 -1.332911 -135.268433
v 94.909843 -1.360555 -136.955765
v 93.481339 -1.342794 -137.061676
v 95.377304 0.522915 -133.664948
v 93.120110 -0.468072 -132.479568
v 91.435387 -0.020478 -135.450684
v 92.386475 -0.020475 -136.759750
v 95.171318 0.539530 -136.022949
v 94.014908 1.178727 -133.461044
v 94.863373 1.166946 -135.242828
v 92.181419 1.121102 -134.041199
v 92.157242 1.002492 -135.841003
v 93.393158 1.109326 -136.322983
v 116.256500 -0.569695 -137.310272
v 114.919495 -0.569696 -137.744705
v 114.313309 -0.199855 -140.523819
v 116.277710 -0.549420 -141.138962
v 117.230392 -0.242530 -139.311920
v 116.157684 1.238614 -139.760162
v 117.367271 -1.184107 -138.837799
v 117.761742 -1.198782 -139.831940
v 115.644333 -1.194333 -137.477585
v 116.430206 -1.194333 -137.732925
v 114.372757 -1.194333 -138.401428
v 114.858459 -1.194333 -137.732925
v 114.763763 -1.087551 -140.612366
v 114.496384 -1.179315 -139.670319
v 117.014328 -1.202156 -141.064529
v 115.833984 -1.187480 -141.152039
v 117.400581 0.354116 -138.345398
v 115.535507 -0.464716 -137.365952
v 114.143456 -0.094878 -139.820923
v 114.929321 -0.094876 -140.902573
v 117.230377 0.367844 -140.293762
v 116.274857 0.895999 -138.176926
v 116.975929 0.886265 -139.649170
v 114.759888 0.848384 -138.656281
v 114.739906 0.750380 -140.143433
v 115.761116 0.838654 -140.541687
v 150.370193 -0.762490 -122.848091
v 149.042999 -0.762490 -123.279335
v 148.441254 -0.395360 -126.038078
v 150.391266 -0.742363 -126.648727
v 151.336960 -0.437722 -124.835075
v 150.272110 1.032567 -125.280037
v 151.472839 -1.372398 -124.364433
v 151.864410 -1.386966 -125.351288
v 149.762512 -1.382549 -123.014175
v 150.542633 -1.382549 -123.267647
v 148.500275 -1.382549 -123.931259
v 148.982407 -1.382549 -123.267647
v 148.888397 -1.276550 -126.125977
v 148.622986 -1.367641 -125.190849
v 151.122467 -1.390315 -126.574829
v 149.950775 -1.375747 -126.661705
v 151.505890 0.154551 -123.875626
v 149.654495 -0.658280 -122.903358
v 148.272644 -0.291153 -125.340332
v 149.052750 -0.291150 -126.414062
v 151.336945 0.168179 -125.809715
v 150.388428 0.692463 -123.708389
v 151.084366 0.682801 -125.169846
v 148.884552 0.645198 -124.184235
v 148.864716 0.547911 -125.660484
v 149.878448 0.635539 -126.055817
v 151.399490 -0.540160 -17.145634
v 149.573776 -0.540161 -17.738857
v 148.746002 -0.035131 -21.533827
v 151.428467 -0.512474 -22.373842
v 152.729385 -0.093405 -19.878956
v 151.264572 1.929147 -20.491055
v 152.916290 -1.379160 -19.231539
v 153.454956 -1.399200 -20.589075
v 150.563568 -1.393124 -17.374096
v 151.636703 -1.393124 -17.722786
v 148.827194 -1.393124 -18.635649
v 149.490417 -1.393124 -17.722786
v 149.361115 -1.247309 -21.654749
v 148.996002 -1.372616 -20.368368
v 152.434341 -1.403807 -22.272192
v 150.822540 -1.383767 -22.391693
v 152.961792 0.721335 -18.559134
v 150.414963 -0.396808 -17.221657
v 148.514069 0.108219 -20.574003
v 149.587189 0.108222 -22.051041
v 152.729355 0.740082 -21.219692
v 151.424561 1.461296 -18.329069
v 152.381912 1.448003 -20.339468
v 149.355820 1.396276 -18.983660
v 149.328537 1.262447 -21.014404
v 150.723038 1.382989 -21.558222
v 202.261017 -1.329559 -59.349609
v 201.048615 -1.329559 -59.743553
v 200.498886 -0.994177 -62.263737
v 202.280273 -1.311173 -62.821571
v 203.144196 -1.032876 -61.164764
v 202.171417 0.310268 -61.571239
v 203.268311 -1.886725 -60.734818
v 203.626038 -1.900033 -61.636337
v 201.705902 -1.895998 -59.501324
v 202.418549 -1.895998 -59.732876
v 200.552811 -1.895998 -60.339100
v 200.993256 -1.895998 -59.732876
v 200.907379 -1.799165 -62.344036
v 200.664902 -1.882379 -61.489769
v 202.948257 -1.903092 -62.754070
v 201.877869 -1.889784 -62.833431
v 203.298523 -0.491820 -60.288280
v 201.607208 -1.234361 -59.400085
v 200.344879 -0.898981 -61.626324
v 201.057495 -0.898979 -62.607204
v 203.144165 -0.479371 -62.055122
v 202.277679 -0.000425 -60.135509
v 202.913422 -0.009252 -61.470577
v 200.903854 -0.043603 -60.570206
v 200.885742 -0.132476 -61.918793
v 201.811798 -0.052427 -62.279934
v 202.440536 -0.353694 -16.683296
v 201.337616 -0.353694 -15.376152
v 197.928101 0.096249 -15.968239
v 198.136276 -0.329027 -18.463879
v 200.632019 0.044332 -18.699041
v 199.634766 1.846276 -17.696033
v 201.229034 -1.101181 -18.635735
v 200.289871 -1.119035 -19.536341
v 201.971146 -1.113621 -16.070309
v 202.044022 -1.113621 -17.072948
v 200.346771 -1.113621 -15.061436
v 201.322876 -1.113621 -15.301968
v 198.035004 -0.983711 -16.516415
v 198.973755 -1.095350 -15.782925
v 198.558121 -1.123139 -19.259710
v 197.917953 -1.105285 -17.969910
v 201.799133 0.770205 -18.447336
v 202.047012 -0.225978 -15.896465
v 198.642151 0.223963 -15.454357
v 197.783966 0.223966 -16.836117
v 199.525726 0.786907 -19.149504
v 201.472473 1.429455 -17.101624
v 200.135269 1.417613 -18.567047
v 200.237244 1.371528 -15.614563
v 198.552429 1.252296 -16.274387
v 198.572250 1.359690 -17.607765
vt 0.681818 0.236191
vt 0.227273 0.236191
vt 0.409090 0.236191
vt 0.818181 0.314921
vt 0.727272 0.314921
vt 0.772726 0.393651
vt 1.000000 0.314921
vt 0.909091 0.314921
vt 0.954545 0.393651
vt 0.272727 0.314921
vt 0.181818 0.314921
vt 0.227273 0.393651
vt 0.454545 0.314921
vt 0.363636 0.314921
vt 0.409090 0.393651
vt 0.636363 0.314921
vt 0.545454 0.314921
vt 0.590909 0.393651
vt 0.500000 0.393651
vt 0.545454 0.472382
vt 0.318182 0.393651
vt 0.363636 0.472382
vt 0.136363 0.393651
vt 0.181818 0.472382
vt 0.090909 0.314921
vt 0.863635 0.393651
vt 0.909090 0.472382
vt 0.681818 0.393651
vt 0.727272 0.472382
vt 0.590909 0.236191
vt 0.500000 0.236191
vt 0.318182 0.236191
vt 0.136363 0.236191
vt 0.954545 0.236191
vt 0.863635 0.236191
vt 0.772726 0.236191
vt 0.045454 0.236191
vt 0.681818 0.236191
vt 0.227273 0.236191
vt 0.409090 0.236191
vt 0.818181 0.314921
vt 0.727272 0.314921
vt 0.772726 0.393651
vt 1.000000 0.314921
vt 0.909091 0.314921
vt 0.954545 0.393651
vt 0.272727 0.314921
vt 0.181818 0.314921
vt 0.227273 0.393651
vt 0.454545 0.314921
vt 0.363636 0.314921
vt 0.409090 0.393651
vt 0.636363 0.314921
vt 0.545454 0.314921
vt 0.590909 0.393651
vt 0.500000 0.393651
vt 0.545454 0.472382
vt 0.318182 0.393651
vt 0.363636 0.472382
vt 0.136363 0.393651
vt 0.181818 0.472382
vt 0.090909 0.314921
vt 0.863635 0.393651
vt 0.909090 0.472382
vt 0.681818 0.393651
vt 0.727272 0.472382
vt 0.590909 0.236191
vt 0.500000 0.236191
vt 0.318182 0.236191
vt 0.136363 0.236191
vt 0.954545 0.236191
vt 0.863635 0.236191
vt 0.772726 0.236191
vt 0.045454 0.236191
vt 0.681818 0.236191
vt 0.227273 0.236191
vt 0.409090 0.236191
vt 0.818181 0.314921
vt 0.727272 0.314921
vt 0.772726 0.393651
vt 1.000000 0.314921
vt 0.909091 0.314921
vt 0.954545 0.393651
vt 0.272727 0.314921
vt 0.181818 0.314921
vt 0.227273 0.393651
vt 0.454545 0.314921
vt 0.363636 0.314921
vt 0.409090 0.393651
vt 0.636363 0.314921
vt 0.545454 0.314921
vt 0.590909 0.393651
vt 0.500000 0.393651
vt 0.545454 0.472382
vt 0.318182 0.393651
vt 0.363636 0.472382
vt 0.136363 0.393651
vt 0.181818 0.472382
vt 0.090909 0.314921
vt 0.863635 0.393651
vt 0.909090 0.472382
vt 0.681818 0.393651
vt 0.727272 0.472382
vt 0.590909 0.236191
vt 0.500000 0.236191
vt 0.318182 0.236191
vt 0.136363 0.236191
vt 0.954545 0.236191
vt 0.863635 0.236191
vt 0.772726 0.236191
vt 0.045454 0.236191
vt 0.681818 0.236191
vt 0.227273 0.236191
vt 0.409090 0.236191
vt 0.818181 0.314921
vt 0.727272 0.314921
vt 0.772726 0.393651
vt 1.000000 0.314921
vt 0.909091 0.314921
vt 0.954545 0.393651
vt 0.272727 0.314921
vt 0.181818 0.314921
vt 0.227273 0.393651
vt 0.454545 0.314921
vt 0.363636 0.314921
vt 0.409090 0.393651
vt 0.636363 0.314921
vt 0.545454 0.314921
vt 0.590909 0.393651
vt 0.500000 0.393651
vt 0.545454 0.472382
vt 0.318182 0.393651
vt 0.363636 0.472382
vt 0.136363 0.393651
vt 0.181818 0.472382
vt 0.090909 0.314921
vt 0.863635 0.393651
vt 0.909090 0.472382
vt 0.681818 0.393651
vt 0.727272 0.472382
vt 0.590909 0.236191
vt 0.500000 0.236191
vt 0.318182 0.236191
vt 0.136363 0.236191
vt 0.954545 0.236191
vt 0.863635 0.236191
vt 0.772726 0.236191
vt 0.045454 0.236191
vt 0.681818 0.236191
vt 0.227273 0.236191
vt 0.409090 0.236191
vt 0.818181 0.314921
vt 0.727272 0.314921
vt 0.772726 0.393651
vt 1.000000 0.314921
vt 0.909091 0.314921
vt 0.954545 0.393651
vt 0.272727 0.314921
vt 0.181818 0.314921
vt 0.227273 0.393651
vt 0.454545 0.314921
vt 0.363636 0.314921
vt 0.409090 0.393651
vt 0.636363 0.314921
vt 0.545454 0.314921
vt 0.590909 0.393651
vt 0.500000 0.393651
vt 0.545454 0.472382
vt 0.318182 0.393651
vt 0.363636 0.472382
vt 0.136363 0.393651
vt 0.181818 0.472382
vt 0.090909 0.314921
vt 0.863635 0.393651
vt 0.909090 0.472382
vt 0.681818 0.393651
vt 0.727272 0.472382
vt 0.590909 0.236191
vt 0.500000 0.236191
vt 0.318182 0.236191
vt 0.136363 0.236191
vt 0.954545 0.236191
vt 0.863635 0.236191
vt 0.772726 0.236191
vt 0.045454 0.236191
vt 0.681818 0.236191
vt 0.227273 0.236191
vt 0.409090 0.236191
vt 0.818181 0.314921
vt 0.727272 0.314921
vt 0.772726 0.393651
vt 1.000000 0.314921
vt 0.909091 0.314921
vt 0.954545 0.393651
vt 0.272727 0.314921
vt 0.181818 0.314921
vt 0.227273 0.393651
vt 0.454545 0.314921
vt 0.363636 0.314921
vt 0.409090 0.393651
vt 0.636363 0.314921
vt 0.545454 0.314921
vt 0.590909 0.393651
vt 0.500000 0.393651
vt 0.545454 0.472382
vt 0.318182 0.393651
vt 0.363636 0.472382
vt 0.136363 0.393651
vt 0.181818 0.472382
vt 0.090909 0.314921
vt 0.863635 0.393651
vt 0.909090 0.472382
vt 0.681818 0.393651
vt 0.727272 0.472382
vt 0.590909 0.236191
vt 0.500000 0.236191
vt 0.318182 0.236191
vt 0.136363 0.236191
vt 0.954545 0.236191
vt 0.863635 0.236191
vt 0.772726 0.236191
vt 0.045454 0.236191
vn -0.0026 -1.0000 0.0032
vn 0.3491 0.4737 0.8086
vn -0.5266 0.4170 0.7408
vn -0.8320 0.4829 -0.2732
vn -0.0319 0.3850 -0.9224
vn 0.9508 0.2632 0.1636
vn 0.3892 0.7248 -0.5685
vn 0.3395 0.7939 -0.5045
vn 0.2907 0.4674 -0.8349
vn -0.2171 0.9092 -0.3552
vn -0.3379 0.5858 -0.7366
vn -0.5124 0.5074 -0.6928
vn -0.3109 0.9486 -0.0583
vn -0.8215 0.5696 -0.0265
vn -0.9171 0.1373 0.3742
vn -0.0993 0.9710 0.2175
vn -0.2595 0.5946 0.7610
vn 0.0076 0.5089 0.8608
vn 0.3702 0.9132 0.1702
vn 0.4494 0.8687 0.2082
vn 0.9569 0.1396 -0.2547
vn 0.8984 0.3731 0.2319
vn 0.8470 0.1358 -0.5140
vn 0.4025 0.3582 -0.8424
vn -0.1343 0.1136 -0.9844
vn -0.4563 -0.1787 -0.8717
vn -0.4957 -0.1665 -0.8524
vn -0.9287 -0.3266 -0.1756
vn -0.9426 -0.3200 -0.0956
vn -0.8558 0.3328 0.3960
vn -0.5310 0.0678 0.8447
vn -0.3035 -0.1882 0.9341
vn -0.0998 -0.1650 0.9812
vn 0.7458 -0.2184 0.6294
vn 0.7453 -0.2178 0.6301
vn 0.9792 0.0424 -0.1986
vn 0.0735 -0.0307 -0.9968
vn -0.8658 -0.4108 -0.2857
vn -0.8058 0.0898 0.5854
vn 0.2699 -0.4870 0.8307
vn 0.8871 0.3039 0.3475
vn -0.0120 -0.9999 0.0100
vn 0.0008 -1.0000 -0.0086
vn 0.0000 -1.0000 -0.0000
vn 0.0037 -0.9999 -0.0115
vn -0.1624 -0.9766 -0.1412
vn -0.0132 -0.9999 0.0102
vn 0.3490 0.4737 0.8085
vn 0.3892 0.7248 -0.5684
vn -0.3379 0.5859 -0.7366
vn -0.5125 0.5074 -0.6928
vn -0.9287 -0.3267 -0.1756
vn -0.5309 0.0678 0.8447
vn 0.9792 0.0423 -0.1986
vn -0.8658 -0.4108 -0.2858
vn -0.8057 0.0898 0.5854
vn 0.3490 0.4737 0.8086
vn 0.0077 0.5089 0.8608
vn 0.4493 0.8688 0.2082
vn -0.8558 0.3327 0.3960
vn 0.4493 0.8687 0.2082
vn 0.7453 -0.2179 0.6301
vn 0.2699 -0.4870 0.8306
vn -0.8320 0.4829 -0.2731
vn 0.2906 0.4674 -0.8349
vn -0.5125 0.5073 -0.6928
vn 0.8983 0.3731 0.2319
vn -0.4563 -0.1788 -0.8717
vn 0.0020 -1.0000 0.0036
vn 0.8805 0.4737 -0.0183
vn 0.4876 0.4170 0.7671
vn -0.5668 0.4829 0.6675
vn -0.8663 0.3850 -0.3183
vn 0.5101 0.2632 -0.8188
vn -0.3797 0.7248 -0.5749
vn -0.3392 0.7939 -0.5047
vn -0.6636 0.4674 -0.5841
vn -0.4108 0.9092 0.0671
vn -0.8096 0.5859 0.0351
vn -0.8349 0.5074 0.2133
vn -0.1713 0.9486 0.2659
vn -0.3344 0.5696 0.7509
vn 0.0007 0.1373 0.9905
vn 0.1640 0.9710 0.1740
vn 0.6070 0.5946 0.5273
vn 0.8001 0.5089 0.3176
vn 0.2973 0.9132 -0.2786
vn 0.3623 0.8687 -0.3376
vn 0.1250 0.1396 -0.9823
vn 0.5536 0.3731 -0.7446
vn -0.1566 0.1358 -0.9783
vn -0.6284 0.3582 -0.6905
vn -0.9624 0.1136 -0.2469
vn -0.9794 -0.1787 0.0938
vn -0.9764 -0.1665 0.1376
vn -0.5129 -0.3266 0.7939
vn -0.4440 -0.3200 0.8369
vn 0.0440 0.3328 0.9420
vn 0.5821 0.0678 0.8103
vn 0.7506 -0.1882 0.6333
vn 0.8711 -0.1650 0.4625
vn 0.8641 -0.2184 -0.4534
vn 0.8647 -0.2178 -0.4527
vn 0.1854 0.0424 -0.9818
vn -0.8955 -0.0307 -0.4440
vn -0.5912 -0.4108 0.6941
vn 0.2383 0.0898 0.9670
vn 0.8711 -0.4870 0.0633
vn 0.6564 0.3039 -0.6905
vn 0.0047 -0.9999 0.0149
vn -0.0076 -1.0000 -0.0040
vn -0.0092 -0.9999 -0.0078
vn -0.1920 -0.9766 0.0971
vn 0.0045 -0.9999 0.0161
usemtl RoundRock
s off
f 7/1/1 14/2/1 16/3/1
f 1/4/2 17/5/2 22/6/2
f 2/7/3 18/8/3 24/9/3
f 3/10/4 19/11/4 25/12/4
f 4/13/5 20/14/5 26/15/5
f 5/16/6 21/17/6 23/18/6
f 23/18/7 26/19/7 6/20/7
f 23/18/8 21/17/8 26/19/8
f 21/17/9 4/13/9 26/19/9
f 26/15/10 25/21/10 6/22/10
f 26/15/11 20/14/11 25/21/11
f 20/14/12 3/10/12 25/21/12
f 25/12/13 24/23/13 6/24/13
f 25/12/14 19/11/14 24/23/14
f 19/11/15 2/25/15 24/23/15
f 24/9/16 22/26/16 6/27/16
f 24/9/17 18/8/17 22/26/17
f 18/8/18 1/4/18 22/26/18
f 22/6/19 23/28/19 6/29/19
f 22/6/20 17/5/20 23/28/20
f 17/5/21 5/16/21 23/28/21
f 8/30/22 21/17/22 5/16/22
f 8/30/23 15/31/23 21/17/23
f 15/31/24 4/13/24 21/17/24
f 16/3/25 20/14/25 4/13/25
f 16/3/26 13/32/26 20/14/26
f 13/32/27 3/10/27 20/14/27
f 14/2/28 19/11/28 3/10/28
f 14/2/29 11/33/29 19/11/29
f 11/33/30 2/25/30 19/11/30
f 12/34/31 18/8/31 2/7/31
f 12/34/32 9/35/32 18/8/32
f 9/35/33 1/4/33 18/8/33
f 10/36/34 17/5/34 1/4/34
f 10/36/35 7/1/35 17/5/35
f 7/1/36 5/16/36 17/5/36
f 15/31/37 16/3/37 4/13/37
f 13/32/38 14/2/38 3/10/38
f 11/33/39 12/37/39 2/25/39
f 9/35/40 10/36/40 1/4/40
f 7/1/41 8/30/41 5/16/41
f 15/31/42 8/30/42 7/1/42
f 7/1/43 10/36/43 14/2/43
f 10/36/44 9/35/44 11/33/44
f 14/2/45 10/36/45 11/33/45
f 9/35/44 12/34/44 11/33/44
f 14/2/46 13/32/46 16/3/46
f 16/3/47 15/31/47 7/1/47
usemtl RoundRock.001
f 33/38/1 40/39/1 42/40/1
f 27/41/48 43/42/48 48/43/48
f 28/44/3 44/45/3 50/46/3
f 29/47/4 45/48/4 51/49/4
f 30/50/5 46/51/5 52/52/5
f 31/53/6 47/54/6 49/55/6
f 49/55/49 52/56/49 32/57/49
f 49/55/8 47/54/8 52/56/8
f 47/54/9 30/50/9 52/56/9
f 52/52/10 51/58/10 32/59/10
f 52/52/50 46/51/50 51/58/50
f 46/51/51 29/47/51 51/58/51
f 51/49/13 50/60/13 32/61/13
f 51/49/14 45/48/14 50/60/14
f 45/48/15 28/62/15 50/60/15
f 50/46/16 48/63/16 32/64/16
f 50/46/17 44/45/17 48/63/17
f 44/45/18 27/41/18 48/63/18
f 48/43/19 49/65/19 32/66/19
f 48/43/20 43/42/20 49/65/20
f 43/42/21 31/53/21 49/65/21
f 34/67/22 47/54/22 31/53/22
f 34/67/23 41/68/23 47/54/23
f 41/68/24 30/50/24 47/54/24
f 42/40/25 46/51/25 30/50/25
f 42/40/26 39/69/26 46/51/26
f 39/69/27 29/47/27 46/51/27
f 40/39/52 45/48/52 29/47/52
f 40/39/29 37/70/29 45/48/29
f 37/70/30 28/62/30 45/48/30
f 38/71/53 44/45/53 28/44/53
f 38/71/32 35/72/32 44/45/32
f 35/72/33 27/41/33 44/45/33
f 36/73/34 43/42/34 27/41/34
f 36/73/35 33/38/35 43/42/35
f 33/38/54 31/53/54 43/42/54
f 41/68/37 42/40/37 30/50/37
f 39/69/55 40/39/55 29/47/55
f 37/70/56 38/74/56 28/62/56
f 35/72/40 36/73/40 27/41/40
f 33/38/41 34/67/41 31/53/41
f 41/68/42 34/67/42 33/38/42
f 33/38/43 36/73/43 40/39/43
f 36/73/44 35/72/44 37/70/44
f 40/39/45 36/73/45 37/70/45
f 35/72/44 38/71/44 37/70/44
f 40/39/46 39/69/46 42/40/46
f 42/40/47 41/68/47 33/38/47
usemtl RoundRock.002
f 59/75/1 66/76/1 68/77/1
f 53/78/57 69/79/57 74/80/57
f 54/81/3 70/82/3 76/83/3
f 55/84/4 71/85/4 77/86/4
f 56/87/5 72/88/5 78/89/5
f 57/90/6 73/91/6 75/92/6
f 75/92/7 78/93/7 58/94/7
f 75/92/8 73/91/8 78/93/8
f 73/91/9 56/87/9 78/93/9
f 78/89/10 77/95/10 58/96/10
f 78/89/11 72/88/11 77/95/11
f 72/88/12 55/84/12 77/95/12
f 77/86/13 76/97/13 58/98/13
f 77/86/14 71/85/14 76/97/14
f 71/85/15 54/99/15 76/97/15
f 76/83/16 74/100/16 58/101/16
f 76/83/17 70/82/17 74/100/17
f 70/82/58 53/78/58 74/100/58
f 74/80/19 75/102/19 58/103/19
f 74/80/59 69/79/59 75/102/59
f 69/79/21 57/90/21 75/102/21
f 60/104/22 73/91/22 57/90/22
f 60/104/23 67/105/23 73/91/23
f 67/105/24 56/87/24 73/91/24
f 68/77/25 72/88/25 56/87/25
f 68/77/26 65/106/26 72/88/26
f 65/106/27 55/84/27 72/88/27
f 66/76/28 71/85/28 55/84/28
f 66/76/29 63/107/29 71/85/29
f 63/107/60 54/99/60 71/85/60
f 64/108/53 70/82/53 54/81/53
f 64/108/32 61/109/32 70/82/32
f 61/109/33 53/78/33 70/82/33
f 62/110/34 69/79/34 53/78/34
f 62/110/35 59/75/35 69/79/35
f 59/75/36 57/90/36 69/79/36
f 67/105/37 68/77/37 56/87/37
f 65/106/38 66/76/38 55/84/38
f 63/107/39 64/111/39 54/99/39
f 61/109/40 62/110/40 53/78/40
f 59/75/41 60/104/41 57/90/41
f 67/105/42 60/104/42 59/75/42
f 59/75/43 62/110/43 66/76/43
f 62/110/44 61/109/44 63/107/44
f 66/76/45 62/110/45 63/107/45
f 61/109/44 64/108/44 63/107/44
f 66/76/46 65/106/46 68/77/46
f 68/77/47 67/105/47 59/75/47
usemtl RoundRock.003
f 85/112/1 92/113/1 94/114/1
f 79/115/57 95/116/57 100/117/57
f 80/118/3 96/119/3 102/120/3
f 81/121/4 97/122/4 103/123/4
f 82/124/5 98/125/5 104/126/5
f 83/127/6 99/128/6 101/129/6
f 101/129/7 104/130/7 84/131/7
f 101/129/8 99/128/8 104/130/8
f 99/128/9 82/124/9 104/130/9
f 104/126/10 103/132/10 84/133/10
f 104/126/50 98/125/50 103/132/50
f 98/125/12 81/121/12 103/132/12
f 103/123/13 102/134/13 84/135/13
f 103/123/14 97/122/14 102/134/14
f 97/122/15 80/136/15 102/134/15
f 102/120/16 100/137/16 84/138/16
f 102/120/17 96/119/17 100/137/17
f 96/119/18 79/115/18 100/137/18
f 100/117/19 101/139/19 84/140/19
f 100/117/61 95/116/61 101/139/61
f 95/116/21 83/127/21 101/139/21
f 86/141/22 99/128/22 83/127/22
f 86/141/23 93/142/23 99/128/23
f 93/142/24 82/124/24 99/128/24
f 94/114/25 98/125/25 82/124/25
f 94/114/26 91/143/26 98/125/26
f 91/143/27 81/121/27 98/125/27
f 92/113/28 97/122/28 81/121/28
f 92/113/29 89/144/29 97/122/29
f 89/144/30 80/136/30 97/122/30
f 90/145/53 96/119/53 80/118/53
f 90/145/32 87/146/32 96/119/32
f 87/146/33 79/115/33 96/119/33
f 88/147/34 95/116/34 79/115/34
f 88/147/62 85/112/62 95/116/62
f 85/112/36 83/127/36 95/116/36
f 93/142/37 94/114/37 82/124/37
f 91/143/55 92/113/55 81/121/55
f 89/144/39 90/148/39 80/136/39
f 87/146/63 88/147/63 79/115/63
f 85/112/41 86/141/41 83/127/41
f 93/142/42 86/141/42 85/112/42
f 85/112/43 88/147/43 92/113/43
f 88/147/44 87/146/44 89/144/44
f 92/113/45 88/147/45 89/144/45
f 87/146/44 90/145/44 89/144/44
f 92/113/46 91/143/46 94/114/46
f 94/114/47 93/142/47 85/112/47
usemtl RoundRock.004
f 111/149/1 118/150/1 120/151/1
f 105/152/57 121/153/57 126/154/57
f 106/155/3 122/156/3 128/157/3
f 107/158/64 123/159/64 129/160/64
f 108/161/5 124/162/5 130/163/5
f 109/164/6 125/165/6 127/166/6
f 127/166/49 130/167/49 110/168/49
f 127/166/8 125/165/8 130/167/8
f 125/165/65 108/161/65 130/167/65
f 130/163/10 129/169/10 110/170/10
f 130/163/50 124/162/50 129/169/50
f 124/162/66 107/158/66 129/169/66
f 129/160/13 128/171/13 110/172/13
f 129/160/14 123/159/14 128/171/14
f 123/159/15 106/173/15 128/171/15
f 128/157/16 126/174/16 110/175/16
f 128/157/17 122/156/17 126/174/17
f 122/156/18 105/152/18 126/174/18
f 126/154/19 127/176/19 110/177/19
f 126/154/20 121/153/20 127/176/20
f 121/153/21 109/164/21 127/176/21
f 112/178/67 125/165/67 109/164/67
f 112/178/23 119/179/23 125/165/23
f 119/179/24 108/161/24 125/165/24
f 120/151/25 124/162/25 108/161/25
f 120/151/68 117/180/68 124/162/68
f 117/180/27 107/158/27 124/162/27
f 118/150/28 123/159/28 107/158/28
f 118/150/29 115/181/29 123/159/29
f 115/181/30 106/173/30 123/159/30
f 116/182/53 122/156/53 106/155/53
f 116/182/32 113/183/32 122/156/32
f 113/183/33 105/152/33 122/156/33
f 114/184/34 121/153/34 105/152/34
f 114/184/35 111/149/35 121/153/35
f 111/149/54 109/164/54 121/153/54
f 119/179/37 120/151/37 108/161/37
f 117/180/55 118/150/55 107/158/55
f 115/181/39 116/185/39 106/173/39
f 113/183/40 114/184/40 105/152/40
f 111/149/41 112/178/41 109/164/41
f 119/179/42 112/178/42 111/149/42
f 111/149/43 114/184/43 118/150/43
f 114/184/44 113/183/44 115/181/44
f 118/150/45 114/184/45 115/181/45
f 113/183/44 116/182/44 115/181/44
f 118/150/46 117/180/46 120/151/46
f 120/151/47 119/179/47 111/149/47
usemtl RoundRock.005
f 137/186/69 144/187/69 146/188/69
f 131/189/70 147/190/70 152/191/70
f 132/192/71 148/193/71 154/194/71
f 133/195/72 149/196/72 155/197/72
f 134/198/73 150/199/73 156/200/73
f 135/201/74 151/202/74 153/203/74
f 153/203/75 156/204/75 136/205/75
f 153/203/76 151/202/76 156/204/76
f 151/202/77 134/198/77 156/204/77
f 156/200/78 155/206/78 136/207/78
f 156/200/79 150/199/79 155/206/79
f 150/199/80 133/195/80 155/206/80
f 155/197/81 154/208/81 136/209/81
f 155/197/82 149/196/82 154/208/82
f 149/196/83 132/210/83 154/208/83
f 154/194/84 152/211/84 136/212/84
f 154/194/85 148/193/85 152/211/85
f 148/193/86 131/189/86 152/211/86
f 152/191/87 153/213/87 136/214/87
f 152/191/88 147/190/88 153/213/88
f 147/190/89 135/201/89 153/213/89
f 138/215/90 151/202/90 135/201/90
f 138/215/91 145/216/91 151/202/91
f 145/216/92 134/198/92 151/202/92
f 146/188/93 150/199/93 134/198/93
f 146/188/94 143/217/94 150/199/94
f 143/217/95 133/195/95 150/199/95
f 144/187/96 149/196/96 133/195/96
f 144/187/97 141/218/97 149/196/97
f 141/218/98 132/210/98 149/196/98
f 142/219/99 148/193/99 132/192/99
f 142/219/100 139/220/100 148/193/100
f 139/220/101 131/189/101 148/193/101
f 140/221/102 147/190/102 131/189/102
f 140/221/103 137/186/103 147/190/103
f 137/186/104 135/201/104 147/190/104
f 145/216/105 146/188/105 134/198/105
f 143/217/106 144/187/106 133/195/106
f 141/218/107 142/222/107 132/210/107
f 139/220/108 140/221/108 131/189/108
f 137/186/109 138/215/109 135/201/109
f 145/216/110 138/215/110 137/186/110
f 137/186/111 140/221/111 144/187/111
f 140/221/44 139/220/44 141/218/44
f 144/187/112 140/221/112 141/218/112
f 139/220/44 142/219/44 141/218/44
f 144/187/113 143/217/113 146/188/113
f 146/188/114 145/216/114 137/186/114
