# Blender v2.90.1 OBJ File: 'START.blend'
# www.blender.org
mtllib START2.mtl
o Cube.002
v 1.993526 4.188346 -0.132889
v -0.393108 4.188345 -0.132889
v 1.993527 4.188346 0.132889
v -0.393108 4.188345 0.132889
v 1.993526 4.974994 -0.132889
v -0.393108 4.974994 -0.132889
v 1.993526 4.974994 0.132889
v -0.393108 4.974994 0.132889
v 0.393324 4.974778 -0.132889
v 0.393324 2.588143 -0.132889
v 0.393324 4.974778 0.132889
v 0.393324 2.588143 0.132889
v -0.393324 4.974778 -0.132889
v -0.393324 2.588143 -0.132889
v -0.393324 4.974778 0.132889
v -0.393324 2.588143 0.132889
v 1.993526 2.587927 -0.132889
v -0.393108 2.587927 -0.132889
v 1.993526 2.587927 0.132889
v -0.393108 2.587927 0.132889
v 1.993526 3.374576 -0.132889
v -0.393108 3.374575 -0.132889
v 1.993526 3.374576 0.132889
v -0.393108 3.374575 0.132889
v 1.977412 3.341698 -0.132889
v 1.977412 0.955064 -0.132889
v 1.977412 3.341698 0.132889
v 1.977412 0.955064 0.132889
v 1.190763 3.341698 -0.132889
v 1.190763 0.955064 -0.132889
v 1.190763 3.341698 0.132889
v 1.190763 0.955064 0.132889
v 1.993526 0.954848 -0.132889
v -0.393108 0.954847 -0.132889
v 1.993526 0.954848 0.132889
v -0.393108 0.954847 0.132889
v 1.993526 1.741496 -0.132889
v -0.393108 1.741496 -0.132889
v 1.993526 1.741496 0.132889
v -0.393108 1.741496 0.132889
vt 0.875000 0.500000
vt 0.625000 0.750000
vt 0.625000 0.500000
vt 0.375000 1.000000
vt 0.375000 0.750000
vt 0.625000 0.000000
vt 0.375000 0.250000
vt 0.375000 0.000000
vt 0.375000 0.500000
vt 0.125000 0.750000
vt 0.125000 0.500000
vt 0.625000 0.250000
vt 0.625000 0.500000
vt 0.875000 0.750000
vt 0.625000 0.750000
vt 0.375000 1.000000
vt 0.375000 0.750000
vt 0.625000 0.000000
vt 0.375000 0.250000
vt 0.375000 0.000000
vt 0.375000 0.500000
vt 0.125000 0.750000
vt 0.125000 0.500000
vt 0.625000 0.250000
vt 0.875000 0.500000
vt 0.625000 0.750000
vt 0.625000 0.500000
vt 0.375000 1.000000
vt 0.375000 0.750000
vt 0.625000 0.000000
vt 0.375000 0.250000
vt 0.375000 0.000000
vt 0.375000 0.500000
vt 0.125000 0.750000
vt 0.125000 0.500000
vt 0.625000 0.250000
vt 0.625000 0.500000
vt 0.875000 0.750000
vt 0.625000 0.750000
vt 0.375000 1.000000
vt 0.375000 0.750000
vt 0.625000 0.000000
vt 0.375000 0.250000
vt 0.375000 0.000000
vt 0.375000 0.500000
vt 0.125000 0.750000
vt 0.125000 0.500000
vt 0.875000 0.500000
vt 0.625000 0.750000
vt 0.625000 0.500000
vt 0.375000 1.000000
vt 0.375000 0.750000
vt 0.625000 0.000000
vt 0.375000 0.250000
vt 0.375000 0.000000
vt 0.375000 0.500000
vt 0.125000 0.750000
vt 0.125000 0.500000
vt 0.625000 0.250000
vt 0.875000 0.750000
vt 0.625000 1.000000
vt 0.875000 0.500000
vt 0.625000 1.000000
vt 0.875000 0.750000
vt 0.625000 1.000000
vt 0.875000 0.500000
vt 0.625000 1.000000
vt 0.625000 0.250000
vt 0.875000 0.750000
vt 0.625000 1.000000
vn 1.0000 0.0000 -0.0000
vn 0.0000 0.0000 1.0000
vn -0.0000 1.0000 -0.0000
vn -1.0000 -0.0000 0.0000
vn 0.0000 -1.0000 -0.0000
vn -0.0000 0.0000 -1.0000
usemtl Material
s off
f 5/1/1 3/2/1 1/3/1
f 3/2/2 8/4/2 4/5/2
f 7/6/3 6/7/3 8/8/3
f 2/9/4 8/10/4 6/11/4
f 1/3/5 4/5/5 2/9/5
f 5/12/6 2/9/6 6/7/6
f 9/13/3 15/14/3 11/15/3
f 11/15/2 16/16/2 12/17/2
f 15/18/4 14/19/4 16/20/4
f 10/21/5 16/22/5 14/23/5
f 9/13/1 12/17/1 10/21/1
f 13/24/6 10/21/6 14/19/6
f 21/25/1 19/26/1 17/27/1
f 19/26/2 24/28/2 20/29/2
f 23/30/3 22/31/3 24/32/3
f 18/33/4 24/34/4 22/35/4
f 17/27/5 20/29/5 18/33/5
f 21/36/6 18/33/6 22/31/6
f 25/37/3 31/38/3 27/39/3
f 27/39/2 32/40/2 28/41/2
f 31/42/4 30/43/4 32/44/4
f 26/45/5 32/46/5 30/47/5
f 25/37/1 28/41/1 26/45/1
f 30/43/6 25/37/6 26/45/6
f 37/48/1 35/49/1 33/50/1
f 35/49/2 40/51/2 36/52/2
f 39/53/3 38/54/3 40/55/3
f 34/56/4 40/57/4 38/58/4
f 33/50/5 36/52/5 34/56/5
f 37/59/6 34/56/6 38/54/6
f 5/1/1 7/60/1 3/2/1
f 3/2/2 7/61/2 8/4/2
f 7/6/3 5/12/3 6/7/3
f 2/9/4 4/5/4 8/10/4
f 1/3/5 3/2/5 4/5/5
f 5/12/6 1/3/6 2/9/6
f 9/13/3 13/62/3 15/14/3
f 11/15/2 15/63/2 16/16/2
f 15/18/4 13/24/4 14/19/4
f 10/21/5 12/17/5 16/22/5
f 9/13/1 11/15/1 12/17/1
f 13/24/6 9/13/6 10/21/6
f 21/25/1 23/64/1 19/26/1
f 19/26/2 23/65/2 24/28/2
f 23/30/3 21/36/3 22/31/3
f 18/33/4 20/29/4 24/34/4
f 17/27/5 19/26/5 20/29/5
f 21/36/6 17/27/6 18/33/6
f 25/37/3 29/66/3 31/38/3
f 27/39/2 31/67/2 32/40/2
f 31/42/4 29/68/4 30/43/4
f 26/45/5 28/41/5 32/46/5
f 25/37/1 27/39/1 28/41/1
f 30/43/6 29/68/6 25/37/6
f 37/48/1 39/69/1 35/49/1
f 35/49/2 39/70/2 40/51/2
f 39/53/3 37/59/3 38/54/3
f 34/56/4 36/52/4 40/57/4
f 33/50/5 35/49/5 36/52/5
f 37/59/6 33/50/6 34/56/6
o Cube.004_Cube.009
v 6.899799 1.370402 -0.132889
v 5.414828 1.370402 -0.132889
v 6.899799 1.370402 0.132888
v 5.414828 1.370402 0.132889
v 6.899798 2.157051 -0.132889
v 5.414828 2.157050 -0.132889
v 6.899798 2.157051 0.132888
v 5.414828 2.157050 0.132889
v 6.501646 4.006706 -0.132889
v 5.489136 -0.005660 -0.132889
v 6.501646 4.006706 0.132889
v 5.489136 -0.005660 0.132889
v 5.714997 4.006706 -0.132889
v 4.702488 -0.005660 -0.132889
v 5.714997 4.006706 0.132889
v 4.702488 -0.005660 0.132889
v 7.530487 -0.005660 0.132888
v 6.517977 4.006706 0.132889
v 7.530487 -0.005660 -0.132889
v 6.517977 4.006706 -0.132888
v 6.743838 -0.005660 0.132888
v 5.731328 4.006706 0.132889
v 6.743838 -0.005660 -0.132889
v 5.731328 4.006706 -0.132888
vt 0.875000 0.500000
vt 0.625000 0.750000
vt 0.625000 0.500000
vt 0.375000 1.000000
vt 0.375000 0.750000
vt 0.625000 0.000000
vt 0.375000 0.250000
vt 0.375000 0.000000
vt 0.375000 0.500000
vt 0.125000 0.750000
vt 0.125000 0.500000
vt 0.625000 0.250000
vt 0.625000 0.500000
vt 0.875000 0.750000
vt 0.625000 0.750000
vt 0.375000 0.750000
vt 0.625000 1.000000
vt 0.375000 1.000000
vt 0.625000 0.000000
vt 0.375000 0.250000
vt 0.375000 0.000000
vt 0.375000 0.500000
vt 0.125000 0.750000
vt 0.125000 0.500000
vt 0.625000 0.250000
vt 0.875000 0.500000
vt 0.625000 0.750000
vt 0.625000 0.500000
vt 0.375000 0.750000
vt 0.625000 1.000000
vt 0.375000 1.000000
vt 0.375000 0.000000
vt 0.625000 0.250000
vt 0.375000 0.250000
vt 0.125000 0.500000
vt 0.125000 0.750000
vt 0.375000 0.500000
vt 0.875000 0.750000
vt 0.625000 1.000000
vt 0.875000 0.500000
vt 0.875000 0.750000
vt 0.625000 0.000000
vn 1.0000 0.0000 0.0000
vn 0.0000 0.0000 1.0000
vn -0.0000 1.0000 0.0000
vn -1.0000 -0.0000 0.0000
vn 0.0000 -1.0000 0.0000
vn -0.0000 0.0000 -1.0000
vn -0.9696 0.2447 0.0000
vn 0.9696 -0.2447 0.0000
vn -0.9696 -0.2447 0.0000
vn 0.9696 0.2447 0.0000
usemtl Material
s off
f 45/71/7 43/72/7 41/73/7
f 43/72/8 48/74/8 44/75/8
f 47/76/9 46/77/9 48/78/9
f 42/79/10 48/80/10 46/81/10
f 41/73/11 44/75/11 42/79/11
f 45/82/12 42/79/12 46/77/12
f 49/83/9 55/84/9 51/85/9
f 52/86/8 55/87/8 56/88/8
f 55/89/13 54/90/13 56/91/13
f 50/92/11 56/93/11 54/94/11
f 49/83/14 52/86/14 50/92/14
f 53/95/12 50/92/12 54/90/12
f 61/96/11 59/97/11 57/98/11
f 60/99/12 63/100/12 64/101/12
f 64/102/15 61/103/15 62/104/15
f 62/105/9 60/99/9 64/106/9
f 57/98/16 60/99/16 58/107/16
f 61/103/8 58/107/8 62/104/8
f 45/71/7 47/108/7 43/72/7
f 43/72/8 47/109/8 48/74/8
f 47/76/9 45/82/9 46/77/9
f 42/79/10 44/75/10 48/80/10
f 41/73/11 43/72/11 44/75/11
f 45/82/12 41/73/12 42/79/12
f 49/83/9 53/110/9 55/84/9
f 52/86/8 51/85/8 55/87/8
f 55/89/13 53/95/13 54/90/13
f 50/92/11 52/86/11 56/93/11
f 49/83/14 51/85/14 52/86/14
f 53/95/12 49/83/12 50/92/12
f 61/96/11 63/111/11 59/97/11
f 60/99/12 59/97/12 63/100/12
f 64/102/15 63/112/15 61/103/15
f 62/105/9 58/107/9 60/99/9
f 57/98/16 59/97/16 60/99/16
f 61/103/8 57/98/8 58/107/8
o Cube.011_Cube.014
v 10.519023 -0.036771 0.132888
v 9.506513 1.891895 0.132889
v 10.519023 -0.036771 -0.132889
v 9.506513 1.891895 -0.132889
v 9.732374 -0.036771 0.132888
v 8.719865 1.891895 0.132889
v 9.732374 -0.036771 -0.132889
v 8.719865 1.891895 -0.132889
v 8.738965 4.065903 -0.132889
v 8.738965 0.016797 -0.132889
v 8.738965 4.065903 0.132889
v 8.738965 0.016797 0.132889
v 7.952316 4.065903 -0.132889
v 7.952316 0.016797 -0.132889
v 7.952316 4.065903 0.132889
v 7.952316 0.016797 0.132889
v 10.355497 3.281106 -0.132889
v 7.968863 3.281105 -0.132889
v 10.355497 3.281106 0.132889
v 7.968863 3.281105 0.132889
v 10.355497 4.067754 -0.132889
v 7.968863 4.067753 -0.132889
v 10.355497 4.067754 0.132889
v 7.968863 4.067753 0.132889
v 10.339383 3.678962 -0.132889
v 10.339383 1.840848 -0.132889
v 10.339383 3.678962 0.132889
v 10.339383 1.840848 0.132889
v 9.552734 3.678962 -0.132889
v 9.552734 1.840848 -0.132889
v 9.552734 3.678962 0.132889
v 9.552734 1.840848 0.132889
v 10.355497 1.876657 -0.132889
v 7.968863 1.876656 -0.132889
v 10.355497 1.876657 0.132889
v 7.968863 1.876656 0.132889
v 10.355497 2.663305 -0.132889
v 7.968863 2.663305 -0.132889
v 10.355497 2.663305 0.132889
v 7.968863 2.663305 0.132889
vt 0.875000 0.500000
vt 0.625000 0.750000
vt 0.625000 0.500000
vt 0.375000 0.750000
vt 0.625000 1.000000
vt 0.375000 1.000000
vt 0.625000 0.000000
vt 0.375000 0.250000
vt 0.375000 0.000000
vt 0.375000 0.500000
vt 0.125000 0.750000
vt 0.125000 0.500000
vt 0.625000 0.250000
vt 0.875000 0.500000
vt 0.625000 0.750000
vt 0.625000 0.500000
vt 0.375000 1.000000
vt 0.375000 0.750000
vt 0.625000 0.000000
vt 0.375000 0.250000
vt 0.375000 0.000000
vt 0.375000 0.500000
vt 0.125000 0.750000
vt 0.125000 0.500000
vt 0.625000 0.250000
vt 0.625000 0.500000
vt 0.875000 0.750000
vt 0.625000 0.750000
vt 0.375000 0.750000
vt 0.625000 1.000000
vt 0.375000 1.000000
vt 0.625000 0.000000
vt 0.375000 0.250000
vt 0.375000 0.000000
vt 0.375000 0.500000
vt 0.125000 0.750000
vt 0.125000 0.500000
vt 0.625000 0.250000
vt 0.875000 0.500000
vt 0.625000 0.750000
vt 0.625000 0.500000
vt 0.375000 1.000000
vt 0.375000 0.750000
vt 0.625000 0.000000
vt 0.375000 0.250000
vt 0.375000 0.000000
vt 0.375000 0.500000
vt 0.125000 0.750000
vt 0.125000 0.500000
vt 0.625000 0.250000
vt 0.625000 0.500000
vt 0.875000 0.750000
vt 0.625000 0.750000
vt 0.375000 0.750000
vt 0.625000 1.000000
vt 0.375000 1.000000
vt 0.625000 0.000000
vt 0.375000 0.250000
vt 0.375000 0.000000
vt 0.375000 0.500000
vt 0.125000 0.750000
vt 0.125000 0.500000
vt 0.625000 0.250000
vt 0.875000 0.750000
vt 0.875000 0.750000
vt 0.625000 1.000000
vt 0.875000 0.500000
vt 0.875000 0.750000
vt 0.625000 1.000000
vt 0.875000 0.500000
vn 0.0000 -1.0000 -0.0000
vn 0.0000 0.0000 -1.0000
vn -0.8854 -0.4648 -0.0000
vn 0.0000 1.0000 0.0000
vn 0.8854 0.4648 0.0000
vn 0.0000 -0.0000 1.0000
vn -1.0000 0.0000 0.0000
vn 1.0000 0.0000 0.0000
usemtl Material
s off
f 69/113/17 67/114/17 65/115/17
f 68/116/18 71/117/18 72/118/18
f 71/119/19 70/120/19 72/121/19
f 66/122/20 72/123/20 70/124/20
f 65/115/21 68/116/21 66/122/21
f 69/125/22 66/122/22 70/120/22
f 77/126/20 75/127/20 73/128/20
f 75/127/22 80/129/22 76/130/22
f 79/131/23 78/132/23 80/133/23
f 74/134/17 80/135/17 78/136/17
f 74/134/24 75/127/24 76/130/24
f 77/137/18 74/134/18 78/132/18
f 81/138/24 87/139/24 83/140/24
f 84/141/22 87/142/22 88/143/22
f 87/144/20 86/145/20 88/146/20
f 82/147/23 88/148/23 86/149/23
f 81/138/17 84/141/17 82/147/17
f 85/150/18 82/147/18 86/145/18
f 93/151/20 91/152/20 89/153/20
f 91/152/22 96/154/22 92/155/22
f 95/156/23 94/157/23 96/158/23
f 90/159/17 96/160/17 94/161/17
f 90/159/24 91/152/24 92/155/24
f 93/162/18 90/159/18 94/157/18
f 97/163/24 103/164/24 99/165/24
f 100/166/22 103/167/22 104/168/22
f 103/169/20 102/170/20 104/171/20
f 98/172/23 104/173/23 102/174/23
f 97/163/17 100/166/17 98/172/17
f 101/175/18 98/172/18 102/170/18
f 69/113/17 71/176/17 67/114/17
f 68/116/18 67/114/18 71/117/18
f 71/119/19 69/125/19 70/120/19
f 66/122/20 68/116/20 72/123/20
f 65/115/21 67/114/21 68/116/21
f 69/125/22 65/115/22 66/122/22
f 77/126/20 79/177/20 75/127/20
f 75/127/22 79/178/22 80/129/22
f 79/131/23 77/137/23 78/132/23
f 74/134/17 76/130/17 80/135/17
f 74/134/24 73/128/24 75/127/24
f 77/137/18 73/128/18 74/134/18
f 81/138/24 85/179/24 87/139/24
f 84/141/22 83/140/22 87/142/22
f 87/144/20 85/150/20 86/145/20
f 82/147/23 84/141/23 88/148/23
f 81/138/17 83/140/17 84/141/17
f 85/150/18 81/138/18 82/147/18
f 93/151/20 95/180/20 91/152/20
f 91/152/22 95/181/22 96/154/22
f 95/156/23 93/162/23 94/157/23
f 90/159/17 92/155/17 96/160/17
f 90/159/24 89/153/24 91/152/24
f 93/162/18 89/153/18 90/159/18
f 97/163/24 101/182/24 103/164/24
f 100/166/22 99/165/22 103/167/22
f 103/169/20 101/175/20 102/170/20
f 98/172/23 100/166/23 104/173/23
f 97/163/17 99/165/17 100/166/17
f 101/175/18 97/163/18 98/172/18
o Cube.012_Cube.015
v 13.148018 3.281106 -0.132889
v 10.761383 3.281105 -0.132889
v 13.148018 3.281106 0.132889
v 10.761383 3.281105 0.132889
v 13.148018 4.067754 -0.132889
v 10.761383 4.067754 -0.132889
v 13.148018 4.067754 0.132889
v 10.761383 4.067754 0.132889
v 12.348022 3.941382 -0.132889
v 12.348022 0.010671 -0.132889
v 12.348022 3.941382 0.132889
v 12.348022 0.010671 0.132889
v 11.561375 3.941382 -0.132889
v 11.561375 0.010671 -0.132889
v 11.561375 3.941382 0.132889
v 11.561375 0.010671 0.132889
vt 0.875000 0.500000
vt 0.625000 0.750000
vt 0.625000 0.500000
vt 0.375000 1.000000
vt 0.375000 0.750000
vt 0.625000 0.000000
vt 0.375000 0.250000
vt 0.375000 0.000000
vt 0.375000 0.500000
vt 0.125000 0.750000
vt 0.125000 0.500000
vt 0.625000 0.250000
vt 0.625000 0.500000
vt 0.875000 0.750000
vt 0.625000 0.750000
vt 0.375000 1.000000
vt 0.375000 0.750000
vt 0.625000 0.000000
vt 0.375000 0.250000
vt 0.375000 0.000000
vt 0.375000 0.500000
vt 0.125000 0.750000
vt 0.125000 0.500000
vt 0.625000 0.250000
vt 0.875000 0.750000
vt 0.625000 1.000000
vt 0.875000 0.500000
vt 0.625000 1.000000
vn 1.0000 0.0000 0.0000
vn 0.0000 0.0000 1.0000
vn -0.0000 1.0000 0.0000
vn -1.0000 0.0000 0.0000
vn 0.0000 -1.0000 0.0000
vn -0.0000 0.0000 -1.0000
usemtl Material
s off
f 109/183/25 107/184/25 105/185/25
f 107/184/26 112/186/26 108/187/26
f 111/188/27 110/189/27 112/190/27
f 106/191/28 112/192/28 110/193/28
f 105/185/29 108/187/29 106/191/29
f 109/194/30 106/191/30 110/189/30
f 113/195/27 119/196/27 115/197/27
f 115/197/26 120/198/26 116/199/26
f 119/200/28 118/201/28 120/202/28
f 114/203/29 120/204/29 118/205/29
f 113/195/25 116/199/25 114/203/25
f 117/206/30 114/203/30 118/201/30
f 109/183/25 111/207/25 107/184/25
f 107/184/26 111/208/26 112/186/26
f 111/188/27 109/194/27 110/189/27
f 106/191/28 108/187/28 112/192/28
f 105/185/29 107/184/29 108/187/29
f 109/194/30 105/185/30 106/191/30
f 113/195/27 117/209/27 119/196/27
f 115/197/26 119/210/26 120/198/26
f 119/200/28 117/206/28 118/201/28
f 114/203/29 116/199/29 120/204/29
f 113/195/25 115/197/25 116/199/25
f 117/206/30 113/195/30 114/203/30
o Cube.001_Cube.017
v 4.708622 3.281106 -0.132889
v 2.321987 3.281105 -0.132889
v 4.708622 3.281106 0.132889
v 2.321987 3.281105 0.132889
v 4.708622 4.067754 -0.132889
v 2.321987 4.067754 -0.132889
v 4.708622 4.067754 0.132889
v 2.321987 4.067754 0.132889
v 3.908627 3.941382 -0.132889
v 3.908627 0.010671 -0.132889
v 3.908627 3.941382 0.132889
v 3.908627 0.010671 0.132889
v 3.121978 3.941382 -0.132889
v 3.121978 0.010671 -0.132889
v 3.121978 3.941382 0.132889
v 3.121978 0.010671 0.132889
vt 0.875000 0.500000
vt 0.625000 0.750000
vt 0.625000 0.500000
vt 0.375000 1.000000
vt 0.375000 0.750000
vt 0.625000 0.000000
vt 0.375000 0.250000
vt 0.375000 0.000000
vt 0.375000 0.500000
vt 0.125000 0.750000
vt 0.125000 0.500000
vt 0.625000 0.250000
vt 0.625000 0.500000
vt 0.875000 0.750000
vt 0.625000 0.750000
vt 0.375000 1.000000
vt 0.375000 0.750000
vt 0.625000 0.000000
vt 0.375000 0.250000
vt 0.375000 0.000000
vt 0.375000 0.500000
vt 0.125000 0.750000
vt 0.125000 0.500000
vt 0.625000 0.250000
vt 0.875000 0.750000
vt 0.625000 1.000000
vt 0.875000 0.500000
vt 0.625000 1.000000
vn 1.0000 0.0000 0.0000
vn 0.0000 0.0000 1.0000
vn -0.0000 1.0000 0.0000
vn -1.0000 0.0000 0.0000
vn 0.0000 -1.0000 0.0000
vn -0.0000 0.0000 -1.0000
usemtl Material
s off
f 125/211/31 123/212/31 121/213/31
f 123/212/32 128/214/32 124/215/32
f 127/216/33 126/217/33 128/218/33
f 122/219/34 128/220/34 126/221/34
f 121/213/35 124/215/35 122/219/35
f 125/222/36 122/219/36 126/217/36
f 129/223/33 135/224/33 131/225/33
f 131/225/32 136/226/32 132/227/32
f 135/228/34 134/229/34 136/230/34
f 130/231/35 136/232/35 134/233/35
f 129/223/31 132/227/31 130/231/31
f 133/234/36 130/231/36 134/229/36
f 125/211/31 127/235/31 123/212/31
f 123/212/32 127/236/32 128/214/32
f 127/216/33 125/222/33 126/217/33
f 122/219/34 124/215/34 128/220/34
f 121/213/35 123/212/35 124/215/35
f 125/222/36 121/213/36 122/219/36
f 129/223/33 133/237/33 135/224/33
f 131/225/32 135/238/32 136/226/32
f 135/228/34 133/234/34 134/229/34
f 130/231/35 132/227/35 136/232/35
f 129/223/31 131/225/31 132/227/31
f 133/234/36 129/223/36 130/231/36
