# Blender v2.90.1 OBJ File: 'Track2Terrain.blend'
# www.blender.org
mtllib Terrain2.mtl
o Terrain_Plane.002
v 119.312874 -0.510103 19.384056
v 209.966217 -0.747835 -9.277920
v 118.764801 -0.264331 -71.195190
v 209.960342 -0.422237 -71.190636
v 148.325165 -2.161317 20.537689
v 140.784378 -0.578019 -70.944656
v 159.991638 -1.423250 -10.957050
v 181.491364 -0.424311 -71.248566
v 119.667160 -0.065228 -26.127674
v 209.340698 -0.504524 -40.677734
v 144.877106 -1.509688 -25.067181
v 171.600174 -1.802595 -41.959297
v 119.291992 0.124059 -3.514576
v 209.194763 -0.430593 -24.765484
v 146.414062 -0.323773 -2.685535
v 166.417862 -2.186200 -26.143740
v 209.636887 -0.253657 -55.734356
v 143.074753 -2.002921 -49.031731
v 176.022766 -0.697444 -57.581276
v 119.126175 -0.465683 -48.931629
v 129.777252 -1.032539 -71.138832
v 133.659729 -1.048033 19.792351
v 132.158768 -1.349397 -25.118008
v 132.730347 -2.801693 -2.756516
v 130.766083 -1.309943 -48.311897
v 185.590225 -0.974886 -10.418575
v 196.079147 -0.143016 -71.372879
v 189.558350 -0.890406 -41.313198
v 188.262497 -0.806099 -25.728384
v 193.388977 -2.723185 -56.537769
v 141.025009 -0.819780 20.166679
v 135.305252 -0.786734 -71.041313
v 138.546173 -1.429899 -25.092482
v 139.602585 -2.060632 -2.720867
v 136.947739 -1.657970 -48.673412
v 144.623856 -0.708251 20.349579
v 138.006348 -0.406345 -70.993668
v 141.667206 -1.469233 -25.080009
v 142.960526 -0.599828 -2.703449
v 139.968246 -1.828025 -48.850056
v 91.340050 -0.392580 -105.700760
v 135.308868 -0.392580 -113.334991
v 64.472633 -0.392580 -150.206223
v 135.397598 -0.399799 -142.976883
v 157.968155 -0.392580 -113.304039
v 157.968155 -0.392580 -143.313202
v 78.656815 -0.392580 -126.021149
v 136.233887 -1.439423 -128.230942
v 157.378250 -0.417435 -128.762024
v 135.219971 -1.114482 -135.408539
v 158.140991 -0.401788 -135.495667
v 68.669739 -0.392580 -138.113693
v 84.998428 -0.392580 -115.860962
v 135.265549 -1.140231 -121.110451
v 157.959305 -0.395875 -120.831825
v 146.563400 -0.467052 -142.817108
v 146.640533 -0.392580 -113.304039
v 145.794174 -1.542552 -128.191833
v 146.093170 -1.351060 -135.962341
v 146.250549 -1.068443 -121.099953
v 127.190178 -0.392580 -111.899963
v 122.227028 -0.392673 -144.576477
v 124.497803 -0.676196 -128.189087
v 123.994347 -0.807699 -135.655289
v 126.118469 -1.069507 -120.022728
v 105.042206 -0.392580 -146.258652
v 110.802490 -0.618739 -128.247253
v 107.984894 -0.926861 -136.410919
v 113.860229 -1.121710 -119.217972
v 116.522903 -0.392580 -110.055084
v 83.935814 -0.392580 -148.312378
v 95.355392 -1.230763 -126.291626
v 90.007797 -0.625112 -137.394989
v 98.737801 -0.854805 -117.739990
v 103.421478 -0.392580 -107.789749
vt 1.000000 0.753007
vt 0.877593 1.000000
vt 0.877593 0.753007
vt 0.436904 0.753007
vt 0.500000 1.000000
vt 0.436904 1.000000
vt 0.750000 0.753007
vt 0.500000 0.753007
vt 0.750000 0.253007
vt 0.500000 0.506013
vt 0.500000 0.253007
vt 0.436904 0.253007
vt 0.436904 0.506013
vt 1.000000 0.253007
vt 0.877593 0.506013
vt 0.877593 0.253007
vt 1.000000 0.000000
vt 0.877593 0.000000
vt 0.436904 0.000000
vt 0.750000 0.000000
vt 0.500000 0.000000
vt 0.750000 0.506013
vt 1.000000 0.506013
vt 0.000000 0.506013
vt 0.250000 0.753007
vt 0.000000 0.753007
vt 0.000000 0.000000
vt 0.250000 0.253007
vt 0.000000 0.253007
vt 0.250000 0.506013
vt 0.250000 1.000000
vt 0.000000 1.000000
vt 0.750000 1.000000
vt 0.375555 0.753007
vt 0.250000 0.000000
vt 0.375555 0.253007
vt 0.375555 0.506013
vt 0.375555 1.000000
vt 0.375555 0.000000
vt 0.815278 0.750000
vt 1.000000 1.000000
vt 0.815278 1.000000
vt 1.000000 0.000000
vt 1.000000 0.250000
vt 1.000000 0.250000
vt 1.000000 0.750000
vt 1.000000 0.500000
vt 1.000000 0.750000
vt 1.000000 0.250000
vt 0.815278 0.500000
vt 0.815278 0.250000
vt 1.000000 1.000000
vt 1.000000 1.000000
vt 1.000000 0.750000
vt 1.000000 0.000000
vt 0.815278 0.000000
vt 1.000000 0.500000
vt 1.000000 0.500000
vt 0.572691 0.000000
vt 0.572691 0.250000
vt 0.572691 0.500000
vt 0.572691 0.750000
vt 0.572691 1.000000
vt 0.274747 0.750000
vt 0.274747 1.000000
vt 0.274747 0.250000
vt 0.274747 0.500000
vt 0.274747 0.000000
vt 0.000000 0.000000
vt 0.000000 0.250000
vt 0.000000 0.500000
vt 0.000000 0.750000
vt 0.000000 1.000000
vt 1.000000 1.000000
vt 1.000000 0.000000
vn -0.1556 0.9776 0.1418
vn 0.0605 0.9964 0.0586
vn -0.0221 0.9975 0.0672
vn 0.0286 0.9981 -0.0548
vn 0.0128 0.9991 -0.0396
vn -0.0176 0.9998 -0.0069
vn -0.0097 0.9999 0.0093
vn -0.0797 0.9968 0.0104
vn 0.1218 0.9902 0.0683
vn -0.0020 0.9998 -0.0204
vn 0.0551 0.9983 -0.0190
vn -0.0154 0.9922 -0.1233
vn 0.0733 0.9971 -0.0193
vn 0.2112 0.9771 0.0269
vn 0.1028 0.9947 -0.0066
vn 0.0695 0.9975 0.0079
vn -0.0526 0.9971 0.0556
vn -0.0163 0.9982 -0.0570
vn -0.0631 0.9980 0.0035
vn 0.1118 0.9916 0.0645
vn 0.0561 0.9984 -0.0017
vn -0.1066 0.9916 -0.0727
vn 0.0123 0.9978 0.0645
vn -0.0447 0.9989 0.0141
vn 0.0554 0.9984 -0.0134
vn -0.3987 0.9167 -0.0249
vn 0.0125 0.9995 0.0276
vn -0.1401 0.9889 0.0488
vn -0.0052 0.9989 0.0475
vn -0.0552 0.9950 -0.0835
vn -0.0783 0.9969 -0.0066
vn 0.0131 0.9989 0.0455
vn -0.0065 1.0000 0.0013
vn 0.0277 0.9994 -0.0195
vn -0.0143 0.9966 -0.0812
vn -0.0994 0.9932 -0.0600
vn 0.0110 0.9977 -0.0674
vn 0.0041 0.9917 0.1282
vn 0.0239 0.9988 0.0418
vn -0.0064 0.9954 -0.0957
vn -0.0093 0.9970 -0.0766
vn -0.0058 0.9993 -0.0357
vn 0.0040 0.9985 0.0543
vn -0.0055 0.9984 0.0558
vn -0.0022 0.9997 0.0225
vn -0.0430 0.9987 -0.0269
vn 0.0142 0.9988 0.0477
vn 0.0125 0.9986 -0.0523
vn 0.0310 0.9993 -0.0193
vn 0.0112 0.9999 -0.0093
vn 0.0496 0.9983 -0.0310
vn 0.0000 1.0000 0.0000
vn 0.0202 0.9997 -0.0105
vn 0.0595 0.9965 0.0586
vn -0.0036 0.9998 0.0185
vn 0.0331 0.9988 0.0351
vn -0.0793 0.9957 -0.0473
vn -0.0193 0.9998 -0.0048
vn -0.0189 0.9996 0.0214
vn 0.3632 0.9307 0.0438
vn 0.0677 0.9975 -0.0215
vn -0.0229 0.9977 0.0641
vn 0.0127 0.9997 -0.0215
vn -0.1509 0.9885 0.0135
vn 0.1026 0.9947 -0.0045
vn 0.0396 0.9961 -0.0791
vn 0.2092 0.9761 0.0580
vn 0.0719 0.9974 0.0090
vn 0.1207 0.9887 -0.0887
vn -0.0631 0.9980 -0.0000
vn -0.0504 0.9987 -0.0096
vn -0.0176 0.9856 0.1682
vn 0.0126 0.9999 -0.0105
vn -0.0283 0.9982 -0.0524
vn -0.1073 0.9937 0.0331
vn 0.0582 0.9977 0.0346
vn 0.0127 0.9998 -0.0160
vn -0.0313 0.9995 0.0070
vn -0.3988 0.9169 -0.0126
vn 0.0595 0.9965 0.0587
vn 0.0251 0.9952 0.0946
vn 0.0000 1.0000 -0.0004
vn -0.0956 0.9952 0.0208
vn 0.0647 0.9974 -0.0331
vn -0.0827 0.9891 0.1219
vn 0.0650 0.9972 0.0360
vn -0.0037 0.9954 -0.0957
vn -0.0574 0.9984 0.0015
vn -0.0065 0.9991 -0.0429
vn 0.0265 0.9952 0.0946
vn 0.0107 0.9996 0.0250
vn 0.0002 0.9963 -0.0864
vn -0.0140 0.9966 -0.0812
vn 0.0043 0.9998 -0.0179
vn -0.0011 0.9988 0.0483
vn -0.0097 0.9988 0.0484
vn 0.0140 0.9987 0.0500
vn 0.0223 0.9986 0.0481
vn -0.0425 0.9988 -0.0230
vn -0.0131 0.9971 -0.0755
vn -0.0074 0.9991 -0.0429
vn 0.0506 0.9983 0.0301
vn 0.0262 0.9982 -0.0542
vn 0.0104 0.9998 0.0155
usemtl Material.469
s off
f 17/1/1 27/2/1 30/3/1
f 40/4/2 6/5/2 37/6/2
f 19/7/3 6/5/3 18/8/3
f 16/9/4 11/10/4 15/11/4
f 39/12/5 11/10/5 38/13/5
f 14/14/6 28/15/6 29/16/6
f 2/17/7 29/16/7 26/18/7
f 36/19/8 15/11/8 39/12/8
f 7/20/9 15/11/9 5/21/9
f 12/22/10 18/8/10 11/10/10
f 38/13/11 18/8/11 40/4/11
f 10/23/12 30/3/12 28/15/12
f 9/24/13 25/25/13 20/26/13
f 1/27/14 24/28/14 13/29/14
f 13/29/15 23/30/15 9/24/15
f 20/26/16 21/31/16 3/32/16
f 28/15/17 19/7/17 12/22/17
f 26/18/18 16/9/18 7/20/18
f 29/16/19 12/22/19 16/9/19
f 30/3/20 8/33/20 19/7/20
f 23/30/21 35/34/21 25/25/21
f 22/35/22 34/36/22 24/28/22
f 24/28/23 33/37/23 23/30/23
f 25/25/24 32/38/24 21/31/24
f 33/37/25 40/4/25 35/34/25
f 31/39/26 39/12/26 34/36/26
f 34/36/27 38/13/27 33/37/27
f 35/34/28 37/6/28 32/38/28
f 64/40/29 44/41/29 62/42/29
f 57/43/30 55/44/30 60/45/30
f 59/46/31 49/47/31 51/48/31
f 54/49/32 63/50/32 65/51/32
f 56/52/33 51/48/33 46/53/33
f 63/50/34 50/54/34 64/40/34
f 42/55/35 65/51/35 61/56/35
f 60/45/36 49/47/36 58/57/36
f 48/58/37 60/45/37 58/57/37
f 44/41/38 59/46/38 56/52/38
f 48/58/39 59/46/39 50/54/39
f 42/55/40 60/45/40 54/49/40
f 70/59/41 65/51/41 69/60/41
f 67/61/42 64/40/42 68/62/42
f 69/60/43 63/50/43 67/61/43
f 68/62/44 62/42/44 66/63/44
f 73/64/45 66/63/45 71/65/45
f 74/66/46 67/61/46 72/67/46
f 72/67/47 68/62/47 73/64/47
f 75/68/48 69/60/48 74/66/48
f 41/69/49 74/66/49 53/70/49
f 47/71/50 73/64/50 52/72/50
f 53/70/51 72/67/51 47/71/51
f 52/72/52 71/65/52 43/73/52
f 17/1/53 4/74/53 27/2/53
f 40/4/54 18/8/54 6/5/54
f 19/7/55 8/33/55 6/5/55
f 16/9/56 12/22/56 11/10/56
f 39/12/57 15/11/57 11/10/57
f 14/14/58 10/23/58 28/15/58
f 2/17/59 14/14/59 29/16/59
f 36/19/60 5/21/60 15/11/60
f 7/20/61 16/9/61 15/11/61
f 12/22/62 19/7/62 18/8/62
f 38/13/63 11/10/63 18/8/63
f 10/23/64 17/1/64 30/3/64
f 9/24/65 23/30/65 25/25/65
f 1/27/66 22/35/66 24/28/66
f 13/29/67 24/28/67 23/30/67
f 20/26/68 25/25/68 21/31/68
f 28/15/69 30/3/69 19/7/69
f 26/18/70 29/16/70 16/9/70
f 29/16/71 28/15/71 12/22/71
f 30/3/72 27/2/72 8/33/72
f 23/30/73 33/37/73 35/34/73
f 22/35/74 31/39/74 34/36/74
f 24/28/75 34/36/75 33/37/75
f 25/25/76 35/34/76 32/38/76
f 33/37/77 38/13/77 40/4/77
f 31/39/78 36/19/78 39/12/78
f 34/36/79 39/12/79 38/13/79
f 35/34/80 40/4/80 37/6/80
f 64/40/81 50/54/81 44/41/81
f 57/43/82 45/75/82 55/44/82
f 59/46/83 58/57/83 49/47/83
f 54/49/84 48/58/84 63/50/84
f 56/52/85 59/46/85 51/48/85
f 63/50/86 48/58/86 50/54/86
f 42/55/87 54/49/87 65/51/87
f 60/45/88 55/44/88 49/47/88
f 48/58/89 54/49/89 60/45/89
f 44/41/90 50/54/90 59/46/90
f 48/58/91 58/57/91 59/46/91
f 42/55/92 57/43/92 60/45/92
f 70/59/93 61/56/93 65/51/93
f 67/61/94 63/50/94 64/40/94
f 69/60/95 65/51/95 63/50/95
f 68/62/96 64/40/96 62/42/96
f 73/64/97 68/62/97 66/63/97
f 74/66/98 69/60/98 67/61/98
f 72/67/99 67/61/99 68/62/99
f 75/68/100 70/59/100 69/60/100
f 41/69/101 75/68/101 74/66/101
f 47/71/102 72/67/102 73/64/102
f 53/70/103 74/66/103 72/67/103
f 52/72/104 73/64/104 71/65/104
