# Blender v2.90.1 OBJ File: 'FINISH.blend'
# www.blender.org
mtllib FINISH10.mtl
o Cube.001
v 1.742403 1.642375 -0.265713
v -0.370616 1.642374 -0.265712
v 1.742403 1.642375 0.265712
v -0.370615 1.642374 0.265713
v 1.742403 2.426734 -0.265713
v -0.370616 2.426734 -0.265712
v 1.742403 2.426734 0.265712
v -0.370616 2.426734 0.265713
v 0.392180 4.026478 -0.265712
v 0.392180 0.042631 -0.265712
v 0.392180 4.026478 0.265712
v 0.392180 0.042631 0.265712
v -0.392180 4.026478 -0.265712
v -0.392180 0.042631 -0.265712
v -0.392180 4.026478 0.265712
v -0.392180 0.042631 0.265712
v 1.742403 3.226462 -0.265713
v -0.370615 3.226462 -0.265712
v 1.742403 3.226462 0.265712
v -0.370615 3.226462 0.265713
v 1.742403 4.010822 -0.265713
v -0.370616 4.010822 -0.265712
v 1.742403 4.010822 0.265712
v -0.370616 4.010822 0.265713
vt 0.875000 0.500000
vt 0.625000 0.750000
vt 0.625000 0.500000
vt 0.375000 1.000000
vt 0.375000 0.750000
vt 0.625000 0.000000
vt 0.375000 0.250000
vt 0.375000 0.000000
vt 0.375000 0.500000
vt 0.125000 0.750000
vt 0.125000 0.500000
vt 0.625000 0.250000
vt 0.625000 0.500000
vt 0.875000 0.750000
vt 0.625000 0.750000
vt 0.375000 1.000000
vt 0.375000 0.750000
vt 0.625000 0.000000
vt 0.375000 0.250000
vt 0.375000 0.000000
vt 0.375000 0.500000
vt 0.125000 0.750000
vt 0.125000 0.500000
vt 0.625000 0.250000
vt 0.875000 0.500000
vt 0.625000 0.750000
vt 0.625000 0.500000
vt 0.375000 1.000000
vt 0.375000 0.750000
vt 0.625000 0.000000
vt 0.375000 0.250000
vt 0.375000 0.000000
vt 0.375000 0.500000
vt 0.125000 0.750000
vt 0.125000 0.500000
vt 0.625000 0.250000
vt 0.875000 0.750000
vt 0.625000 1.000000
vt 0.875000 0.500000
vt 0.625000 1.000000
vt 0.875000 0.750000
vt 0.625000 1.000000
vn 1.0000 0.0000 0.0000
vn 0.0000 0.0000 1.0000
vn -0.0000 1.0000 0.0000
vn -1.0000 -0.0000 0.0000
vn 0.0000 -1.0000 0.0000
vn -0.0000 -0.0000 -1.0000
usemtl Material
s off
f 5/1/1 3/2/1 1/3/1
f 3/2/2 8/4/2 4/5/2
f 7/6/3 6/7/3 8/8/3
f 2/9/4 8/10/4 6/11/4
f 1/3/5 4/5/5 2/9/5
f 5/12/6 2/9/6 6/7/6
f 9/13/3 15/14/3 11/15/3
f 11/15/2 16/16/2 12/17/2
f 15/18/4 14/19/4 16/20/4
f 10/21/5 16/22/5 14/23/5
f 9/13/1 12/17/1 10/21/1
f 13/24/6 10/21/6 14/19/6
f 21/25/1 19/26/1 17/27/1
f 19/26/2 24/28/2 20/29/2
f 23/30/3 22/31/3 24/32/3
f 18/33/4 24/34/4 22/35/4
f 17/27/5 20/29/5 18/33/5
f 21/36/6 18/33/6 22/31/6
f 5/1/1 7/37/1 3/2/1
f 3/2/2 7/38/2 8/4/2
f 7/6/3 5/12/3 6/7/3
f 2/9/4 4/5/4 8/10/4
f 1/3/5 3/2/5 4/5/5
f 5/12/6 1/3/6 2/9/6
f 9/13/3 13/39/3 15/14/3
f 11/15/2 15/40/2 16/16/2
f 15/18/4 13/24/4 14/19/4
f 10/21/5 12/17/5 16/22/5
f 9/13/1 11/15/1 12/17/1
f 13/24/6 9/13/6 10/21/6
f 21/25/1 23/41/1 19/26/1
f 19/26/2 23/42/2 24/28/2
f 23/30/3 21/36/3 22/31/3
f 18/33/4 20/29/4 24/34/4
f 17/27/5 19/26/5 20/29/5
f 21/36/6 17/27/6 18/33/6
o Cube.005
v 4.208354 0.020858 -0.265713
v 2.095335 0.020858 -0.265712
v 4.208354 0.020858 0.265712
v 2.095335 0.020858 0.265713
v 4.208354 0.805218 -0.265713
v 2.095335 0.805218 -0.265712
v 4.208354 0.805218 0.265712
v 2.095335 0.805218 0.265713
v 3.544025 4.005381 -0.265712
v 3.544025 0.021533 -0.265712
v 3.544025 4.005381 0.265712
v 3.544025 0.021533 0.265712
v 2.759665 4.005381 -0.265712
v 2.759665 0.021533 -0.265712
v 2.759665 4.005381 0.265712
v 2.759665 0.021533 0.265712
v 4.208354 3.205364 -0.265713
v 2.095335 3.205364 -0.265712
v 4.208354 3.205364 0.265712
v 2.095335 3.205364 0.265713
v 4.208354 3.989724 -0.265713
v 2.095335 3.989724 -0.265712
v 4.208354 3.989724 0.265712
v 2.095335 3.989724 0.265713
vt 0.875000 0.500000
vt 0.625000 0.750000
vt 0.625000 0.500000
vt 0.375000 1.000000
vt 0.375000 0.750000
vt 0.625000 0.000000
vt 0.375000 0.250000
vt 0.375000 0.000000
vt 0.375000 0.500000
vt 0.125000 0.750000
vt 0.125000 0.500000
vt 0.625000 0.250000
vt 0.625000 0.500000
vt 0.875000 0.750000
vt 0.625000 0.750000
vt 0.375000 1.000000
vt 0.375000 0.750000
vt 0.625000 0.000000
vt 0.375000 0.250000
vt 0.375000 0.000000
vt 0.375000 0.500000
vt 0.125000 0.750000
vt 0.125000 0.500000
vt 0.625000 0.250000
vt 0.875000 0.500000
vt 0.625000 0.750000
vt 0.625000 0.500000
vt 0.375000 1.000000
vt 0.375000 0.750000
vt 0.625000 0.000000
vt 0.375000 0.250000
vt 0.375000 0.000000
vt 0.375000 0.500000
vt 0.125000 0.750000
vt 0.125000 0.500000
vt 0.625000 0.250000
vt 0.875000 0.750000
vt 0.625000 1.000000
vt 0.875000 0.500000
vt 0.625000 1.000000
vt 0.875000 0.750000
vt 0.625000 1.000000
vn 1.0000 0.0000 -0.0000
vn 0.0000 0.0000 1.0000
vn -0.0000 1.0000 0.0000
vn -1.0000 0.0000 0.0000
vn 0.0000 -1.0000 0.0000
vn -0.0000 0.0000 -1.0000
usemtl Material
s off
f 29/43/7 27/44/7 25/45/7
f 27/44/8 32/46/8 28/47/8
f 31/48/9 30/49/9 32/50/9
f 26/51/10 32/52/10 30/53/10
f 25/45/11 28/47/11 26/51/11
f 29/54/12 26/51/12 30/49/12
f 33/55/9 39/56/9 35/57/9
f 35/57/8 40/58/8 36/59/8
f 39/60/10 38/61/10 40/62/10
f 34/63/11 40/64/11 38/65/11
f 33/55/7 36/59/7 34/63/7
f 37/66/12 34/63/12 38/61/12
f 45/67/7 43/68/7 41/69/7
f 43/68/8 48/70/8 44/71/8
f 47/72/9 46/73/9 48/74/9
f 42/75/10 48/76/10 46/77/10
f 41/69/11 44/71/11 42/75/11
f 45/78/12 42/75/12 46/73/12
f 29/43/7 31/79/7 27/44/7
f 27/44/8 31/80/8 32/46/8
f 31/48/9 29/54/9 30/49/9
f 26/51/10 28/47/10 32/52/10
f 25/45/11 27/44/11 28/47/11
f 29/54/12 25/45/12 26/51/12
f 33/55/9 37/81/9 39/56/9
f 35/57/8 39/82/8 40/58/8
f 39/60/10 37/66/10 38/61/10
f 34/63/11 36/59/11 40/64/11
f 33/55/7 35/57/7 36/59/7
f 37/66/12 33/55/12 34/63/12
f 45/67/7 47/83/7 43/68/7
f 43/68/8 47/84/8 48/70/8
f 47/72/9 45/78/9 46/73/9
f 42/75/10 44/71/10 48/76/10
f 41/69/11 43/68/11 44/71/11
f 45/78/12 41/69/12 42/75/12
o Cube.007
v 7.202124 3.963182 -0.265712
v 7.202124 -0.020665 -0.265712
v 7.202124 3.963182 0.265712
v 7.202124 -0.020665 0.265712
v 6.417764 3.963182 -0.265712
v 6.417764 -0.020665 -0.265712
v 6.417764 3.963182 0.265712
v 6.417764 -0.020665 0.265712
v 5.307752 3.963182 -0.265712
v 5.307752 -0.020665 -0.265712
v 5.307752 3.963182 0.265712
v 5.307752 -0.020665 0.265712
v 4.523392 3.963182 -0.265712
v 4.523392 -0.020665 -0.265712
v 4.523392 3.963182 0.265712
v 4.523392 -0.020665 0.265712
v 5.356744 3.963182 -0.265712
v 7.202125 -0.020665 -0.265712
v 5.356744 3.963182 0.265712
v 7.202125 -0.020665 0.265712
v 4.572384 3.963182 -0.265712
v 6.417765 -0.020665 -0.265712
v 4.572384 3.963182 0.265712
v 6.417765 -0.020665 0.265712
vt 0.875000 0.500000
vt 0.625000 0.750000
vt 0.625000 0.500000
vt 0.375000 1.000000
vt 0.375000 0.750000
vt 0.625000 0.000000
vt 0.375000 0.250000
vt 0.375000 0.000000
vt 0.375000 0.500000
vt 0.125000 0.750000
vt 0.125000 0.500000
vt 0.625000 0.250000
vt 0.875000 0.500000
vt 0.625000 0.750000
vt 0.625000 0.500000
vt 0.375000 1.000000
vt 0.375000 0.750000
vt 0.625000 0.000000
vt 0.375000 0.250000
vt 0.375000 0.000000
vt 0.375000 0.500000
vt 0.125000 0.750000
vt 0.125000 0.500000
vt 0.625000 0.250000
vt 0.875000 0.500000
vt 0.625000 0.750000
vt 0.625000 0.500000
vt 0.375000 1.000000
vt 0.375000 0.750000
vt 0.625000 0.000000
vt 0.375000 0.250000
vt 0.375000 0.000000
vt 0.375000 0.500000
vt 0.125000 0.750000
vt 0.125000 0.500000
vt 0.875000 0.750000
vt 0.625000 1.000000
vt 0.875000 0.750000
vt 0.625000 1.000000
vt 0.875000 0.750000
vt 0.625000 1.000000
vt 0.625000 0.250000
vn 0.0000 1.0000 0.0000
vn 0.0000 0.0000 1.0000
vn -1.0000 0.0000 0.0000
vn 0.0000 -1.0000 0.0000
vn 1.0000 0.0000 0.0000
vn 0.0000 0.0000 -1.0000
vn -0.9074 -0.4203 0.0000
vn 0.9074 0.4203 0.0000
usemtl Material
s off
f 53/85/13 51/86/13 49/87/13
f 51/86/14 56/88/14 52/89/14
f 55/90/15 54/91/15 56/92/15
f 50/93/16 56/94/16 54/95/16
f 49/87/17 52/89/17 50/93/17
f 53/96/18 50/93/18 54/91/18
f 61/97/13 59/98/13 57/99/13
f 59/98/14 64/100/14 60/101/14
f 63/102/15 62/103/15 64/104/15
f 58/105/16 64/106/16 62/107/16
f 57/99/17 60/101/17 58/105/17
f 61/108/18 58/105/18 62/103/18
f 69/109/13 67/110/13 65/111/13
f 67/110/14 72/112/14 68/113/14
f 71/114/19 70/115/19 72/116/19
f 66/117/16 72/118/16 70/119/16
f 65/111/20 68/113/20 66/117/20
f 70/115/18 65/111/18 66/117/18
f 53/85/13 55/120/13 51/86/13
f 51/86/14 55/121/14 56/88/14
f 55/90/15 53/96/15 54/91/15
f 50/93/16 52/89/16 56/94/16
f 49/87/17 51/86/17 52/89/17
f 53/96/18 49/87/18 50/93/18
f 61/97/13 63/122/13 59/98/13
f 59/98/14 63/123/14 64/100/14
f 63/102/15 61/108/15 62/103/15
f 58/105/16 60/101/16 64/106/16
f 57/99/17 59/98/17 60/101/17
f 61/108/18 57/99/18 58/105/18
f 69/109/13 71/124/13 67/110/13
f 67/110/14 71/125/14 72/112/14
f 71/114/19 69/126/19 70/115/19
f 66/117/16 68/113/16 72/118/16
f 65/111/20 67/110/20 68/113/20
f 70/115/18 69/126/18 65/111/18
o Cube.011
v 9.662840 0.020858 -0.265713
v 7.549822 0.020858 -0.265712
v 9.662840 0.020858 0.265712
v 7.549822 0.020858 0.265713
v 9.662840 0.805218 -0.265713
v 7.549822 0.805218 -0.265712
v 9.662840 0.805218 0.265712
v 7.549822 0.805218 0.265713
v 8.998510 4.005380 -0.265712
v 8.998510 0.021533 -0.265712
v 8.998510 4.005380 0.265712
v 8.998510 0.021533 0.265712
v 8.214150 4.005380 -0.265712
v 8.214150 0.021532 -0.265712
v 8.214150 4.005380 0.265712
v 8.214150 0.021532 0.265712
v 9.662840 3.205365 -0.265713
v 7.549822 3.205364 -0.265712
v 9.662841 3.205365 0.265712
v 7.549822 3.205364 0.265713
v 9.662840 3.989725 -0.265713
v 7.549822 3.989724 -0.265712
v 9.662840 3.989725 0.265712
v 7.549822 3.989724 0.265713
vt 0.875000 0.500000
vt 0.625000 0.750000
vt 0.625000 0.500000
vt 0.375000 1.000000
vt 0.375000 0.750000
vt 0.625000 0.000000
vt 0.375000 0.250000
vt 0.375000 0.000000
vt 0.375000 0.500000
vt 0.125000 0.750000
vt 0.125000 0.500000
vt 0.625000 0.250000
vt 0.625000 0.500000
vt 0.875000 0.750000
vt 0.625000 0.750000
vt 0.375000 1.000000
vt 0.375000 0.750000
vt 0.625000 0.000000
vt 0.375000 0.250000
vt 0.375000 0.000000
vt 0.375000 0.500000
vt 0.125000 0.750000
vt 0.125000 0.500000
vt 0.625000 0.250000
vt 0.875000 0.500000
vt 0.625000 0.750000
vt 0.625000 0.500000
vt 0.375000 1.000000
vt 0.375000 0.750000
vt 0.625000 0.000000
vt 0.375000 0.250000
vt 0.375000 0.000000
vt 0.375000 0.500000
vt 0.125000 0.750000
vt 0.125000 0.500000
vt 0.625000 0.250000
vt 0.875000 0.750000
vt 0.625000 1.000000
vt 0.875000 0.500000
vt 0.625000 1.000000
vt 0.875000 0.750000
vt 0.625000 1.000000
vn 1.0000 0.0000 0.0000
vn 0.0000 0.0000 1.0000
vn -0.0000 1.0000 0.0000
vn -1.0000 0.0000 0.0000
vn 0.0000 -1.0000 0.0000
vn -0.0000 0.0000 -1.0000
usemtl Material
s off
f 77/127/21 75/128/21 73/129/21
f 75/128/22 80/130/22 76/131/22
f 79/132/23 78/133/23 80/134/23
f 74/135/24 80/136/24 78/137/24
f 73/129/25 76/131/25 74/135/25
f 77/138/26 74/135/26 78/133/26
f 81/139/23 87/140/23 83/141/23
f 83/141/22 88/142/22 84/143/22
f 87/144/24 86/145/24 88/146/24
f 82/147/25 88/148/25 86/149/25
f 81/139/21 84/143/21 82/147/21
f 85/150/26 82/147/26 86/145/26
f 93/151/21 91/152/21 89/153/21
f 91/152/22 96/154/22 92/155/22
f 95/156/23 94/157/23 96/158/23
f 90/159/24 96/160/24 94/161/24
f 89/153/25 92/155/25 90/159/25
f 93/162/26 90/159/26 94/157/26
f 77/127/21 79/163/21 75/128/21
f 75/128/22 79/164/22 80/130/22
f 79/132/23 77/138/23 78/133/23
f 74/135/24 76/131/24 80/136/24
f 73/129/25 75/128/25 76/131/25
f 77/138/26 73/129/26 74/135/26
f 81/139/23 85/165/23 87/140/23
f 83/141/22 87/166/22 88/142/22
f 87/144/24 85/150/24 86/145/24
f 82/147/25 84/143/25 88/148/25
f 81/139/21 83/141/21 84/143/21
f 85/150/26 81/139/26 82/147/26
f 93/151/21 95/167/21 91/152/21
f 91/152/22 95/168/22 96/154/22
f 95/156/23 93/162/23 94/157/23
f 90/159/24 92/155/24 96/160/24
f 89/153/25 91/152/25 92/155/25
f 93/162/26 89/153/26 90/159/26
o Cube.012
v 13.179196 3.013745 -0.265712
v 13.179196 -0.970102 -0.265712
v 13.179196 3.013745 0.265712
v 13.179196 -0.970102 0.265712
v 12.394837 3.013745 -0.265712
v 12.394837 -0.970102 -0.265712
v 12.394837 3.013745 0.265712
v 12.394837 -0.970102 0.265712
v 15.073570 3.013745 -0.265712
v 15.073570 -0.970102 -0.265712
v 15.073570 3.013745 0.265712
v 15.073570 -0.970102 0.265712
v 14.289210 3.013745 -0.265712
v 14.289210 -0.970102 -0.265712
v 14.289210 3.013745 0.265712
v 14.289210 -0.970102 0.265712
v 14.807043 0.629642 -0.265712
v 12.694025 0.629642 -0.265712
v 14.807043 0.629642 0.265712
v 12.694025 0.629642 0.265712
v 14.807043 1.414002 -0.265712
v 12.694025 1.414001 -0.265712
v 14.807043 1.414002 0.265712
v 12.694025 1.414001 0.265712
vt 0.875000 0.500000
vt 0.625000 0.750000
vt 0.625000 0.500000
vt 0.375000 1.000000
vt 0.375000 0.750000
vt 0.625000 0.000000
vt 0.375000 0.250000
vt 0.375000 0.000000
vt 0.375000 0.500000
vt 0.125000 0.750000
vt 0.125000 0.500000
vt 0.625000 0.250000
vt 0.875000 0.500000
vt 0.625000 0.750000
vt 0.625000 0.500000
vt 0.375000 1.000000
vt 0.375000 0.750000
vt 0.625000 0.000000
vt 0.375000 0.250000
vt 0.375000 0.000000
vt 0.375000 0.500000
vt 0.125000 0.750000
vt 0.125000 0.500000
vt 0.625000 0.250000
vt 0.875000 0.500000
vt 0.625000 0.750000
vt 0.625000 0.500000
vt 0.375000 1.000000
vt 0.375000 0.750000
vt 0.625000 0.000000
vt 0.375000 0.250000
vt 0.375000 0.000000
vt 0.375000 0.500000
vt 0.125000 0.750000
vt 0.125000 0.500000
vt 0.875000 0.750000
vt 0.625000 1.000000
vt 0.875000 0.750000
vt 0.625000 1.000000
vt 0.875000 0.750000
vt 0.625000 1.000000
vt 0.625000 0.250000
vn 0.0000 1.0000 0.0000
vn 0.0000 0.0000 1.0000
vn -1.0000 0.0000 0.0000
vn 0.0000 -1.0000 0.0000
vn 1.0000 0.0000 0.0000
vn 0.0000 0.0000 -1.0000
usemtl Material
s off
f 101/169/27 99/170/27 97/171/27
f 99/170/28 104/172/28 100/173/28
f 103/174/29 102/175/29 104/176/29
f 98/177/30 104/178/30 102/179/30
f 97/171/31 100/173/31 98/177/31
f 101/180/32 98/177/32 102/175/32
f 109/181/27 107/182/27 105/183/27
f 107/182/28 112/184/28 108/185/28
f 111/186/29 110/187/29 112/188/29
f 106/189/30 112/190/30 110/191/30
f 105/183/31 108/185/31 106/189/31
f 109/192/32 106/189/32 110/187/32
f 117/193/31 115/194/31 113/195/31
f 115/194/28 120/196/28 116/197/28
f 119/198/27 118/199/27 120/200/27
f 114/201/29 120/202/29 118/203/29
f 113/195/30 116/197/30 114/201/30
f 118/199/32 113/195/32 114/201/32
f 101/169/27 103/204/27 99/170/27
f 99/170/28 103/205/28 104/172/28
f 103/174/29 101/180/29 102/175/29
f 98/177/30 100/173/30 104/178/30
f 97/171/31 99/170/31 100/173/31
f 101/180/32 97/171/32 98/177/32
f 109/181/27 111/206/27 107/182/27
f 107/182/28 111/207/28 112/184/28
f 111/186/29 109/192/29 110/187/29
f 106/189/30 108/185/30 112/190/30
f 105/183/31 107/182/31 108/185/31
f 109/192/32 105/183/32 106/189/32
f 117/193/31 119/208/31 115/194/31
f 115/194/28 119/209/28 120/196/28
f 119/198/27 117/210/27 118/199/27
f 114/201/29 116/197/29 120/202/29
f 113/195/30 115/194/30 116/197/30
f 118/199/32 117/210/32 113/195/32
o Cube.018
v 12.112462 -0.928579 -0.265713
v 9.999444 -0.928580 -0.265712
v 12.112462 -0.928579 0.265712
v 9.999444 -0.928580 0.265713
v 12.112462 -0.144219 -0.265713
v 9.999444 -0.144220 -0.265712
v 12.112462 -0.144219 0.265712
v 9.999444 -0.144220 0.265713
v 10.762239 2.971703 -0.265712
v 10.762239 0.691430 -0.265712
v 10.762239 2.971703 0.265712
v 10.762239 0.691430 0.265712
v 9.977880 2.971702 -0.265712
v 9.977880 0.691430 -0.265712
v 9.977880 2.971702 0.265712
v 9.977880 0.691430 0.265712
v 12.112462 0.671839 -0.265713
v 9.999444 0.671839 -0.265712
v 12.112462 0.671839 0.265712
v 9.999444 0.671839 0.265713
v 12.112462 1.456199 -0.265713
v 9.999443 1.456198 -0.265712
v 12.112462 1.456199 0.265712
v 9.999443 1.456198 0.265713
v 12.112463 2.255927 -0.265713
v 9.999444 2.255927 -0.265712
v 12.112463 2.255927 0.265712
v 9.999444 2.255927 0.265713
v 12.112462 3.040287 -0.265713
v 9.999444 3.040287 -0.265712
v 12.112462 3.040287 0.265712
v 9.999444 3.040287 0.265713
v 12.101365 1.420277 -0.265712
v 12.101365 -0.859996 -0.265712
v 12.101365 1.420277 0.265712
v 12.101365 -0.859996 0.265712
v 11.317005 1.420277 -0.265712
v 11.317005 -0.859996 -0.265712
v 11.317005 1.420277 0.265712
v 11.317005 -0.859996 0.265712
vt 0.875000 0.500000
vt 0.625000 0.750000
vt 0.625000 0.500000
vt 0.375000 1.000000
vt 0.375000 0.750000
vt 0.625000 0.000000
vt 0.375000 0.250000
vt 0.375000 0.000000
vt 0.375000 0.500000
vt 0.125000 0.750000
vt 0.125000 0.500000
vt 0.625000 0.250000
vt 0.625000 0.500000
vt 0.875000 0.750000
vt 0.625000 0.750000
vt 0.375000 1.000000
vt 0.375000 0.750000
vt 0.625000 0.000000
vt 0.375000 0.250000
vt 0.375000 0.000000
vt 0.375000 0.500000
vt 0.125000 0.750000
vt 0.125000 0.500000
vt 0.625000 0.250000
vt 0.875000 0.500000
vt 0.625000 0.750000
vt 0.625000 0.500000
vt 0.375000 1.000000
vt 0.375000 0.750000
vt 0.625000 0.000000
vt 0.375000 0.250000
vt 0.375000 0.000000
vt 0.375000 0.500000
vt 0.125000 0.750000
vt 0.125000 0.500000
vt 0.625000 0.250000
vt 0.875000 0.500000
vt 0.625000 0.750000
vt 0.625000 0.500000
vt 0.375000 1.000000
vt 0.375000 0.750000
vt 0.625000 0.000000
vt 0.375000 0.250000
vt 0.375000 0.000000
vt 0.375000 0.500000
vt 0.125000 0.750000
vt 0.125000 0.500000
vt 0.625000 0.250000
vt 0.625000 0.500000
vt 0.875000 0.750000
vt 0.625000 0.750000
vt 0.375000 1.000000
vt 0.375000 0.750000
vt 0.625000 0.000000
vt 0.375000 0.250000
vt 0.375000 0.000000
vt 0.375000 0.500000
vt 0.125000 0.750000
vt 0.125000 0.500000
vt 0.875000 0.750000
vt 0.625000 1.000000
vt 0.875000 0.500000
vt 0.625000 1.000000
vt 0.875000 0.750000
vt 0.625000 1.000000
vt 0.875000 0.750000
vt 0.625000 1.000000
vt 0.875000 0.500000
vt 0.625000 1.000000
vt 0.625000 0.250000
vn 1.0000 0.0000 0.0000
vn 0.0000 0.0000 1.0000
vn -0.0000 1.0000 0.0000
vn -1.0000 0.0000 0.0000
vn 0.0000 -1.0000 0.0000
vn -0.0000 0.0000 -1.0000
usemtl Material
s off
f 125/211/33 123/212/33 121/213/33
f 123/212/34 128/214/34 124/215/34
f 127/216/35 126/217/35 128/218/35
f 122/219/36 128/220/36 126/221/36
f 121/213/37 124/215/37 122/219/37
f 125/222/38 122/219/38 126/217/38
f 129/223/35 135/224/35 131/225/35
f 131/225/34 136/226/34 132/227/34
f 135/228/36 134/229/36 136/230/36
f 130/231/37 136/232/37 134/233/37
f 129/223/33 132/227/33 130/231/33
f 133/234/38 130/231/38 134/229/38
f 141/235/33 139/236/33 137/237/33
f 139/236/34 144/238/34 140/239/34
f 143/240/35 142/241/35 144/242/35
f 138/243/36 144/244/36 142/245/36
f 137/237/37 140/239/37 138/243/37
f 141/246/38 138/243/38 142/241/38
f 149/247/33 147/248/33 145/249/33
f 147/248/34 152/250/34 148/251/34
f 151/252/35 150/253/35 152/254/35
f 146/255/36 152/256/36 150/257/36
f 145/249/37 148/251/37 146/255/37
f 149/258/38 146/255/38 150/253/38
f 153/259/35 159/260/35 155/261/35
f 155/261/34 160/262/34 156/263/34
f 159/264/36 158/265/36 160/266/36
f 154/267/37 160/268/37 158/269/37
f 153/259/33 156/263/33 154/267/33
f 158/265/38 153/259/38 154/267/38
f 125/211/33 127/270/33 123/212/33
f 123/212/34 127/271/34 128/214/34
f 127/216/35 125/222/35 126/217/35
f 122/219/36 124/215/36 128/220/36
f 121/213/37 123/212/37 124/215/37
f 125/222/38 121/213/38 122/219/38
f 129/223/35 133/272/35 135/224/35
f 131/225/34 135/273/34 136/226/34
f 135/228/36 133/234/36 134/229/36
f 130/231/37 132/227/37 136/232/37
f 129/223/33 131/225/33 132/227/33
f 133/234/38 129/223/38 130/231/38
f 141/235/33 143/274/33 139/236/33
f 139/236/34 143/275/34 144/238/34
f 143/240/35 141/246/35 142/241/35
f 138/243/36 140/239/36 144/244/36
f 137/237/37 139/236/37 140/239/37
f 141/246/38 137/237/38 138/243/38
f 149/247/33 151/276/33 147/248/33
f 147/248/34 151/277/34 152/250/34
f 151/252/35 149/258/35 150/253/35
f 146/255/36 148/251/36 152/256/36
f 145/249/37 147/248/37 148/251/37
f 149/258/38 145/249/38 146/255/38
f 153/259/35 157/278/35 159/260/35
f 155/261/34 159/279/34 160/262/34
f 159/264/36 157/280/36 158/265/36
f 154/267/37 156/263/37 160/268/37
f 153/259/33 155/261/33 156/263/33
f 158/265/38 157/280/38 153/259/38
