# Blender v2.90.1 OBJ File: 'Needle.blend'
# www.blender.org
mtllib Needle.mtl
o Plane
v 0.127059 -1.141262 -0.000132
v 0.088449 -0.976142 -0.000457
v 0.102637 -1.204149 -0.000011
v 0.125411 -1.180488 -0.000055
v 0.116680 -1.119983 -0.000174
v 0.098071 -1.104280 -0.000206
v 0.088464 -0.976095 0.024168
v 0.125426 -1.180441 0.024569
v 0.127074 -1.141215 0.024493
v 0.098086 -1.104233 0.024419
v 0.102652 -1.204103 0.024614
v 0.116695 -1.119936 0.024451
v -0.000154 0.671720 -0.003501
v 0.009593 -1.145694 -0.000132
v 0.035653 -0.978134 -0.000457
v 0.038684 -1.206562 -0.000011
v 0.014192 -1.184684 -0.000055
v 0.070916 -1.212134 0.000003
v 0.018339 -1.123693 -0.000174
v 0.035713 -1.106632 -0.000206
v 0.035634 -0.978088 0.024168
v -0.000155 0.671767 0.021124
v 0.014173 -1.184638 0.024569
v 0.009575 -1.145648 0.024493
v 0.035694 -1.106587 0.024419
v 0.070915 -1.212088 0.024627
v 0.038666 -1.206516 0.024614
v 0.018321 -1.123647 0.024451
vt 0.480469 0.414062
vt 0.480469 0.414062
vt 0.480469 0.414062
vt 0.480469 0.414062
vt 0.480469 0.414062
vt 0.480469 0.414062
vt 0.480469 0.414062
vt 0.480469 0.414062
vt 0.480469 0.414062
vt 0.480469 0.414062
vt 0.480469 0.414062
vt 0.480469 0.414062
vt 0.480469 0.414062
vt 0.480469 0.414062
vt 0.480469 0.414062
vt 0.480469 0.414062
vt 0.480469 0.414062
vt 0.480469 0.414062
vt 0.480469 0.414062
vt 0.480469 0.414062
vt 0.480469 0.414062
vt 0.480469 0.414062
vt 0.480469 0.414062
vt 0.480469 0.414062
vt 0.480469 0.414062
vt 0.480469 0.414062
vt 0.480469 0.414062
vt 0.480469 0.414062
vn 0.0001 -0.0020 -1.0000
vn -0.0001 0.0020 1.0000
vn 0.6449 0.7643 -0.0019
vn 0.7205 -0.6935 0.0009
vn 0.9991 -0.0420 -0.0005
vn 0.8988 0.4384 -0.0014
vn 0.2441 -0.9697 0.0018
vn 0.9972 0.0749 -0.0008
vn 0.9986 0.0537 -0.0007
vn -0.7007 0.7135 -0.0018
vn -0.6662 -0.7458 0.0009
vn -0.9931 -0.1171 -0.0005
vn -0.9293 0.3694 -0.0014
vn -0.1704 -0.9854 0.0018
vn -1.0000 -0.0005 -0.0008
vn -0.9998 -0.0217 -0.0007
vn -0.0008 -0.0019 -1.0000
vn 0.0008 0.0019 1.0000
vn 0.6449 0.7643 -0.0018
vn 0.2440 -0.9698 0.0017
vn 0.9986 0.0537 -0.0000
vn 0.0009 -0.0018 -1.0000
vn -0.0009 0.0018 1.0000
vn -0.7007 0.7135 -0.0019
vn -0.1703 -0.9854 0.0017
vn -0.9998 -0.0217 -0.0000
usemtl Material.001
s off
f 18/1/1 2/2/1 6/3/1
f 12/4/2 10/5/2 26/6/2
f 5/7/3 10/5/3 12/4/3
f 4/8/4 11/9/4 3/10/4
f 4/8/5 9/11/5 8/12/5
f 1/13/6 12/4/6 9/11/6
f 3/10/7 26/6/7 18/1/7
f 6/3/8 7/14/8 10/5/8
f 13/15/9 7/14/9 2/2/9
f 19/16/1 20/17/1 18/1/1
f 26/6/2 21/18/2 25/19/2
f 19/16/10 25/19/10 20/17/10
f 27/20/11 17/21/11 16/22/11
f 17/21/12 24/23/12 14/24/12
f 14/24/13 28/25/13 19/16/13
f 26/6/14 16/22/14 18/1/14
f 20/17/15 21/18/15 15/26/15
f 21/18/16 13/15/16 15/26/16
f 6/3/1 5/7/1 18/1/1
f 5/7/1 1/13/1 18/1/1
f 1/13/1 4/8/1 3/10/1
f 18/1/17 13/15/17 2/2/17
f 1/13/1 3/10/1 18/1/1
f 7/14/18 22/27/18 26/6/18
f 26/6/2 11/9/2 9/11/2
f 11/9/2 8/12/2 9/11/2
f 9/11/2 12/4/2 26/6/2
f 10/5/2 7/14/2 26/6/2
f 5/7/19 6/3/19 10/5/19
f 4/8/4 8/12/4 11/9/4
f 4/8/5 1/13/5 9/11/5
f 1/13/6 5/7/6 12/4/6
f 3/10/20 11/9/20 26/6/20
f 6/3/8 2/2/8 7/14/8
f 13/15/21 22/27/21 7/14/21
f 15/26/22 13/15/22 18/1/22
f 18/1/1 16/22/1 14/24/1
f 16/22/1 17/21/1 14/24/1
f 14/24/1 19/16/1 18/1/1
f 20/17/1 15/26/1 18/1/1
f 25/19/2 28/25/2 26/6/2
f 28/25/2 24/23/2 26/6/2
f 24/23/2 23/28/2 27/20/2
f 26/6/23 22/27/23 21/18/23
f 24/23/2 27/20/2 26/6/2
f 19/16/24 28/25/24 25/19/24
f 27/20/11 23/28/11 17/21/11
f 17/21/12 23/28/12 24/23/12
f 14/24/13 24/23/13 28/25/13
f 26/6/25 27/20/25 16/22/25
f 20/17/15 25/19/15 21/18/15
f 21/18/26 22/27/26 13/15/26
