# Blender v2.90.1 OBJ File: 'TreeSwaying.blend'
# www.blender.org
mtllib TreeSwaying3.mtl
o Cylinder.001
v 0.000000 3.458159 -0.314818
v 0.277986 1.300755 -0.351537
v 0.000000 1.302920 -0.441834
v 0.233715 3.456339 -0.238901
v 0.449791 1.295087 -0.115136
v 0.378159 3.451574 -0.040149
v 0.449791 1.288080 0.177072
v 0.378159 3.445683 0.205523
v 0.277986 1.282412 0.413473
v 0.233715 3.440918 0.404276
v 0.000000 1.280247 0.503770
v 0.000000 3.439098 0.480192
v -0.277986 1.282412 0.413473
v -0.233715 3.440918 0.404276
v -0.449791 1.288080 0.177072
v -0.378159 3.445683 0.205523
v -0.449791 1.295087 -0.115136
v -0.378159 3.451574 -0.040149
v -0.277986 1.300755 -0.351537
v -0.233715 3.456339 -0.238901
v 0.630945 0.033714 0.205874
v 0.000000 0.022726 0.664151
v -0.630945 0.033714 0.205874
v 0.000000 0.054530 -0.662298
v -0.389946 0.051493 -0.535634
v -0.630945 0.043542 -0.204022
v -0.389946 0.025763 0.537486
v 0.389946 0.025763 0.537486
v 0.630945 0.043542 -0.204022
v 0.389946 0.051493 -0.535634
v -1.251328 4.810846 -1.646727
v 0.000000 5.339898 -1.448270
v -0.911368 5.322504 -1.142169
v -0.558970 7.795044 -0.568958
v 0.000000 7.320900 -1.547165
v 0.000000 7.807124 -0.749801
v -0.752460 9.764962 -0.747212
v 0.000000 10.264000 -0.306033
v -0.379834 10.247846 -0.174522
v -0.234359 12.704150 0.300965
v 0.000000 12.239680 -0.299991
v 0.000000 12.714365 0.225505
v 0.000000 14.243097 0.834760
v -0.608930 11.911055 -0.326629
v -1.474626 5.301178 -0.377766
v -1.621099 7.243974 -0.372024
v -0.904433 7.766399 -0.093964
v -0.614584 10.227855 0.138803
v -0.813913 12.160367 0.286008
v -0.379201 12.677412 0.498521
v 0.000000 14.243097 0.834760
v -2.024692 4.718122 0.731209
v -1.474626 5.268472 0.590319
v -0.904433 7.730312 0.492259
v -1.217506 9.639063 0.677658
v -0.614584 10.196639 0.545960
v -0.379201 12.644361 0.742715
v -0.985269 11.755708 0.821160
v -0.911369 5.238527 1.354347
v -1.001894 7.119507 1.529395
v -0.558971 7.700506 0.967203
v -0.379834 10.169373 0.858564
v -0.503026 12.032039 1.234174
v -0.234359 12.617624 0.940270
v 0.000000 14.243097 0.834760
v 0.000000 4.660815 2.200855
v 0.000000 5.235078 1.661054
v 0.000000 7.690305 1.148127
v 0.000000 9.561253 1.558275
v 0.000000 10.164991 0.991241
v 0.000000 12.607410 1.015730
v 0.000000 14.243097 0.834760
v 0.000000 11.659699 1.530531
v 0.911369 5.238527 1.354348
v 1.001894 7.119507 1.529395
v 0.558970 7.700506 0.967203
v 0.379834 10.169373 0.858564
v 0.503026 12.032039 1.234175
v 0.234359 12.617624 0.940270
v 0.000000 14.243097 0.834760
v 2.024692 4.718122 0.731209
v 1.474625 5.268472 0.590319
v 0.904433 7.730312 0.492259
v 1.217506 9.639063 0.677658
v 0.614584 10.196639 0.545959
v 0.379201 12.644361 0.742715
v 0.985269 11.755709 0.821159
v 1.474625 5.301178 -0.377766
v 1.621099 7.243974 -0.372024
v 0.904433 7.766399 -0.093964
v 0.614584 10.227855 0.138804
v 0.813913 12.160367 0.286008
v 0.379201 12.677412 0.498521
v 0.000000 14.243097 0.834760
v 1.251328 4.810846 -1.646727
v 0.911369 5.322504 -1.142168
v 0.558971 7.795044 -0.568958
v 0.752460 9.764962 -0.747211
v 0.379834 10.247846 -0.174522
v 0.234359 12.704150 0.300965
v 0.608930 11.911055 -0.326629
v 0.000000 14.243097 0.834760
v 0.000000 14.243097 0.834760
v 0.000000 2.392653 -2.515961
v 1.811692 2.062323 -2.473529
v 2.421557 2.341245 -0.757502
v 2.931380 1.961295 0.970725
v 1.496605 2.258065 2.087744
v 0.000000 1.898856 3.099391
v -1.496606 2.258065 2.087744
v -2.931380 1.961295 0.970725
v -2.421557 2.341245 -0.757502
v -1.811692 2.062323 -2.473529
v 0.000000 4.513244 -2.511436
v 2.450959 4.445176 -0.732323
v 1.514776 4.335040 2.146344
v -1.514776 4.335040 2.146343
v -2.450959 4.445176 -0.732323
v 1.212827 6.987897 -1.529832
v 1.962396 6.839769 0.772124
v 0.000000 6.748221 2.194812
v -1.962396 6.839769 0.772124
v -1.212827 6.987897 -1.529832
v 0.000000 9.477392 -1.283166
v 1.473833 9.386319 -0.216839
v 0.910878 9.238962 1.508513
v -0.910879 9.238962 1.508513
v -1.473832 9.386319 -0.216839
v 0.000000 2.955776 0.070870
v 0.000000 2.955776 0.070870
v 0.000000 2.955776 0.070870
v 0.000000 2.955776 0.070870
v 0.000000 2.955776 0.070870
v 0.000000 2.955776 0.070870
v 0.000000 2.955776 0.070870
v 0.000000 2.955776 0.070870
v 0.000000 2.955776 0.070870
v 0.000000 2.955776 0.070870
v 0.000000 14.243097 0.834760
v 0.000000 14.243097 0.834760
vt 0.702073 0.269118
vt 0.670069 0.068233
vt 0.684803 0.058931
vt 0.698826 0.262365
vt 0.657348 0.076051
vt 0.695745 0.259668
vt 0.645532 0.082450
vt 0.692863 0.260156
vt 0.633833 0.087497
vt 0.691098 0.263854
vt 0.621692 0.091320
vt 0.691449 0.269796
vt 0.608542 0.094233
vt 0.693726 0.279162
vt 0.593678 0.096553
vt 0.700340 0.292561
vt 0.576200 0.098925
vt 0.700831 0.283559
vt 0.555241 0.102610
vt 0.703132 0.279922
vt 0.703132 0.048130
vt 0.625973 0.047497
vt 0.618279 0.049760
vt 0.609704 0.036308
vt 0.616796 0.019855
vt 0.605172 0.000095
vt 0.606365 0.021717
vt 0.614449 0.045536
vt 0.622760 0.050519
vt 0.626545 0.041638
vt 0.623838 0.032657
vt 0.000095 0.658106
vt 0.074941 0.714435
vt 0.010296 0.711678
vt 0.069376 0.440504
vt 0.111558 0.371623
vt 0.110892 0.437562
vt 0.172364 0.158099
vt 0.188626 0.206572
vt 0.169534 0.198027
vt 0.229798 0.061704
vt 0.237246 0.037049
vt 0.237749 0.062469
vt 0.267277 0.000095
vt 0.220178 0.032815
vt 0.481263 0.710217
vt 0.555050 0.652010
vt 0.546079 0.705964
vt 0.436860 0.367941
vt 0.480631 0.435869
vt 0.439030 0.433883
vt 0.356041 0.204670
vt 0.371194 0.155838
vt 0.374934 0.195691
vt 0.303581 0.036294
vt 0.311587 0.060775
vt 0.303656 0.061720
vt 0.272232 0.000497
vt 0.320528 0.031680
vt 0.425468 0.657202
vt 0.424541 0.697886
vt 0.398615 0.445923
vt 0.326098 0.168546
vt 0.335312 0.207768
vt 0.296116 0.064295
vt 0.292544 0.038910
vt 0.371330 0.703852
vt 0.349643 0.384678
vt 0.356172 0.442584
vt 0.315517 0.216516
vt 0.284948 0.041436
vt 0.287640 0.064519
vt 0.271748 0.000943
vt 0.324683 0.658387
vt 0.324244 0.693355
vt 0.315943 0.454252
vt 0.289906 0.175041
vt 0.293733 0.215524
vt 0.279374 0.066912
vt 0.270604 0.001296
vt 0.277412 0.042046
vt 0.277807 0.701278
vt 0.274426 0.390622
vt 0.275059 0.447226
vt 0.272505 0.220899
vt 0.270490 0.043046
vt 0.270747 0.065925
vt 0.270013 0.001080
vt 0.230050 0.659402
vt 0.231222 0.694339
vt 0.234343 0.455157
vt 0.254068 0.175448
vt 0.251161 0.216007
vt 0.262145 0.067107
vt 0.263545 0.042203
vt 0.184384 0.705788
vt 0.199104 0.386373
vt 0.193879 0.444391
vt 0.229406 0.217493
vt 0.255993 0.041764
vt 0.253826 0.064903
vt 0.269426 0.001274
vt 0.129394 0.660373
vt 0.131183 0.700924
vt 0.151542 0.448678
vt 0.217738 0.169778
vt 0.209418 0.209197
vt 0.245346 0.064872
vt 0.248340 0.039412
vt 0.268858 0.001081
vt 0.268268 0.000964
vt 0.107773 0.899041
vt 0.168860 0.856225
vt 0.207836 0.841806
vt 0.245440 0.830762
vt 0.279135 0.829448
vt 0.312670 0.830119
vt 0.350370 0.840458
vt 0.389886 0.854267
vt 0.452366 0.896360
vt 0.555050 0.980425
vt 0.008066 0.984276
vt 0.074279 0.653190
vt 0.183122 0.655461
vt 0.277309 0.654517
vt 0.371531 0.653441
vt 0.480557 0.648766
vt 0.160617 0.376343
vt 0.237738 0.385919
vt 0.310997 0.385095
vt 0.387902 0.373776
vt 0.513026 0.352291
vt 0.035077 0.357721
vt 0.197777 0.162426
vt 0.236242 0.171379
vt 0.271973 0.174035
vt 0.307635 0.170567
vt 0.345888 0.160742
vt 0.285065 0.989718
vt 0.275600 0.989611
vt 0.273458 0.991491
vt 0.288737 0.999905
vt 0.287890 0.996674
vt 0.280695 0.985174
vt 0.278064 0.988467
vt 0.283351 0.986926
vt 0.271902 0.994213
vt 0.286247 0.993946
vt 0.270300 0.996909
vt 0.267943 0.000324
vt 0.272773 0.000118
vt 0.271122 0.000960
vn 0.0000 0.6746 -0.7382
vn 0.5852 0.1131 -0.8030
vn -0.0000 0.1176 -0.9931
vn 0.4433 0.6711 -0.5942
vn 0.9469 0.1011 -0.3053
vn 0.7172 0.6621 -0.2172
vn 0.9469 0.0864 0.3098
vn 0.7172 0.6509 0.2487
vn 0.5852 0.0745 0.8075
vn 0.4433 0.6419 0.6257
vn 0.0000 0.0699 0.9976
vn -0.0000 0.6384 0.7697
vn -0.5852 0.0745 0.8075
vn -0.4433 0.6419 0.6257
vn -0.9469 0.0864 0.3098
vn -0.7172 0.6509 0.2487
vn -0.9469 0.1011 -0.3053
vn -0.7172 0.6621 -0.2172
vn -0.5852 0.1131 -0.8030
vn -0.4433 0.6711 -0.5942
vn 0.7704 -0.5922 0.2362
vn 0.0000 -0.6056 0.7958
vn -0.7704 -0.5922 0.2362
vn 0.0000 -0.5668 -0.8239
vn -0.4761 -0.5705 -0.6692
vn -0.7704 -0.5802 -0.2643
vn -0.4761 -0.6019 0.6411
vn 0.4761 -0.6019 0.6411
vn 0.7704 -0.5802 -0.2643
vn 0.4761 -0.5705 -0.6692
vn 0.3868 -0.7713 0.5054
vn -0.0000 -0.7846 0.6200
vn 0.3945 -0.7646 0.5096
vn 0.3513 -0.8319 0.4296
vn 0.0000 -0.8438 0.5367
vn 0.0000 -0.8538 0.5206
vn 0.3863 -0.7939 0.4696
vn -0.0000 -0.8077 0.5896
vn 0.3744 -0.8145 0.4432
vn 0.4593 -0.7031 0.5428
vn 0.0000 -0.7228 0.6911
vn 0.0000 -0.7421 0.6703
vn 0.8688 -0.0475 0.4929
vn -0.2222 0.4805 -0.8484
vn -0.5421 0.4837 -0.6872
vn 0.6238 -0.7621 0.1734
vn 0.5643 -0.8146 0.1342
vn 0.5516 -0.8244 0.1271
vn 0.6323 -0.7611 0.1446
vn 0.7435 -0.6503 0.1558
vn 0.7264 -0.6713 0.1473
vn -0.6639 -0.5993 -0.4474
vn -0.8829 0.4068 -0.2344
vn 0.6394 -0.7324 -0.2339
vn 0.6536 -0.7160 -0.2452
vn 0.5728 -0.7843 -0.2385
vn 0.6378 -0.7227 -0.2662
vn 0.6207 -0.7354 -0.2720
vn 0.7432 -0.5860 -0.3230
vn -0.8769 0.3455 0.3343
vn 0.3914 -0.7246 -0.5672
vn 0.3550 -0.7659 -0.5360
vn 0.3469 -0.7752 -0.5279
vn 0.4024 -0.6815 -0.6113
vn 0.4595 -0.5331 -0.7104
vn 0.4489 -0.5568 -0.6989
vn -0.5457 0.2676 0.7941
vn -0.7370 -0.6717 0.0750
vn 0.0000 -0.7075 -0.7067
vn 0.0000 -0.6849 -0.7286
vn -0.0000 -0.7544 -0.6564
vn -0.0000 -0.6770 -0.7359
vn -0.0000 -0.6846 -0.7289
vn 0.0000 -0.5135 -0.8581
vn 0.9862 -0.0307 0.1624
vn -0.3523 0.2434 0.9037
vn -0.3914 -0.7246 -0.5672
vn -0.3550 -0.7659 -0.5360
vn -0.3469 -0.7752 -0.5279
vn -0.4024 -0.6815 -0.6113
vn -0.4595 -0.5331 -0.7104
vn -0.4489 -0.5568 -0.6989
vn 0.5457 0.2676 0.7941
vn 0.3523 0.2434 0.9037
vn -0.6394 -0.7324 -0.2339
vn -0.6536 -0.7160 -0.2452
vn -0.5728 -0.7843 -0.2385
vn -0.6378 -0.7227 -0.2662
vn -0.6207 -0.7354 -0.2720
vn -0.7432 -0.5860 -0.3230
vn 0.7118 0.2784 0.6448
vn -0.6238 -0.7621 0.1734
vn -0.5643 -0.8146 0.1342
vn -0.5516 -0.8244 0.1271
vn -0.6323 -0.7611 0.1446
vn -0.7435 -0.6503 0.1558
vn -0.7264 -0.6713 0.1473
vn 0.9295 0.3683 -0.0191
vn 0.1393 -0.0789 0.9871
vn -0.3868 -0.7713 0.5054
vn -0.3945 -0.7646 0.5096
vn -0.3513 -0.8319 0.4296
vn -0.3863 -0.7939 0.4696
vn -0.3744 -0.8145 0.4432
vn -0.4593 -0.7031 0.5428
vn 0.7922 0.4250 -0.4380
vn 0.2222 0.4805 -0.8484
vn 0.0000 0.3909 -0.9204
vn 0.5529 0.3663 -0.7484
vn 0.5333 0.4419 -0.7214
vn 0.8855 0.3733 -0.2766
vn 0.8900 0.3419 0.3016
vn 0.8623 0.4135 0.2925
vn 0.5466 0.3450 0.7631
vn -0.0000 0.3269 0.9451
vn 0.0000 0.3959 0.9183
vn -0.5466 0.3450 0.7631
vn -0.8900 0.3419 0.3016
vn -0.8623 0.4135 0.2925
vn -0.8855 0.3733 -0.2766
vn -0.5529 0.3663 -0.7484
vn -0.5333 0.4419 -0.7214
vn -0.0000 0.4185 -0.9082
vn 0.5410 0.4203 -0.7285
vn 0.0000 0.4716 -0.8818
vn 0.8794 0.3933 -0.2682
vn 0.8551 0.4482 -0.2604
vn 0.8749 0.3803 0.2998
vn 0.5419 0.3528 0.7628
vn 0.5280 0.4104 0.7435
vn -0.0000 0.3556 0.9346
vn -0.5419 0.3528 0.7628
vn -0.5280 0.4104 0.7435
vn -0.8749 0.3803 0.2998
vn -0.8794 0.3933 -0.2682
vn -0.8551 0.4482 -0.2604
vn -0.5410 0.4203 -0.7285
vn 0.0000 0.4097 -0.9122
vn 0.5561 0.3862 -0.7359
vn 0.5421 0.4369 -0.7178
vn 0.8906 0.3686 -0.2664
vn 0.8903 0.3260 0.3180
vn 0.8747 0.3721 0.3105
vn 0.5503 0.3021 0.7784
vn 0.0000 0.2896 0.9571
vn 0.0000 0.3322 0.9432
vn -0.5503 0.3021 0.7784
vn -0.8903 0.3260 0.3180
vn -0.8747 0.3721 0.3105
vn -0.8906 0.3686 -0.2664
vn -0.5561 0.3862 -0.7359
vn -0.5421 0.4369 -0.7178
vn 0.0000 0.3903 -0.9207
vn 0.5571 0.3753 -0.7408
vn 0.0000 0.4224 -0.9064
vn 0.9109 0.3185 -0.2622
vn 0.8970 0.3555 -0.2629
vn 0.9118 0.2609 0.3172
vn 0.5623 0.2022 0.8018
vn 0.5588 0.2451 0.7923
vn 0.0000 0.1887 0.9820
vn -0.5623 0.2022 0.8018
vn -0.5588 0.2451 0.7923
vn -0.9118 0.2609 0.3172
vn -0.9109 0.3185 -0.2622
vn -0.8970 0.3555 -0.2629
vn -0.5571 0.3753 -0.7408
vn 0.2854 -0.9507 -0.1209
vn 0.2054 -0.9728 -0.1072
vn 0.1444 -0.9633 -0.2261
vn -0.1740 -0.9612 0.2142
vn -0.0308 -0.1742 0.9835
vn 0.0000 0.0000 1.0000
vn -0.4386 0.8985 0.0148
vn 0.0000 0.0000 -0.0072
vn -0.4388 0.8986 -0.0072
vn -0.2855 -0.9508 -0.1204
vn -0.0126 -0.0844 0.2095
vn -0.0422 -0.1412 0.7489
vn 0.0000 0.9497 0.3130
vn 0.0000 0.0000 0.2856
vn 0.0003 0.9584 0.2856
vn -0.1759 -0.9611 0.2128
vn -0.0000 -0.6976 0.7165
vn 0.0000 -0.9771 0.2127
vn 0.2857 -0.9509 -0.1193
vn 0.1072 -0.3586 0.9273
vn 0.0000 0.0000 0.7757
vn -0.2304 -0.9719 0.0475
vn -0.0045 0.0092 -0.9999
vn 0.0000 0.0000 -1.0000
vn -0.0030 0.0060 -1.0000
vn 0.0039 -0.9442 -0.3295
vn -0.1444 -0.9633 -0.2261
vn 0.0000 -0.7894 0.6138
vn 0.3606 -0.8204 0.4437
vn -0.0000 -0.7790 0.6271
vn 0.4742 -0.6731 0.5675
vn 0.0000 0.0000 0.0000
vn 0.6141 -0.7707 0.1697
vn 0.6595 -0.7366 0.1497
vn 0.5867 -0.7729 -0.2417
vn 0.7673 -0.5521 -0.3263
vn 0.3812 -0.7402 -0.5539
vn 0.4076 -0.6678 -0.6229
vn 0.0000 -0.7433 -0.6690
vn 0.0000 -0.4773 -0.8787
vn -0.3812 -0.7402 -0.5539
vn -0.4076 -0.6678 -0.6229
vn 0.0000 -0.4864 -0.8738
vn -0.5867 -0.7729 -0.2417
vn -0.7673 -0.5521 -0.3263
vn 0.0334 0.9392 0.3417
vn 0.7969 -0.6040 -0.0110
vn 0.0741 -0.6040 0.7935
vn -0.6141 -0.7707 0.1697
vn -0.6595 -0.7366 0.1497
vn 0.9272 0.3709 0.0523
vn 0.1441 0.0576 0.9879
vn -0.3606 -0.8204 0.4437
vn -0.4742 -0.6731 0.5675
vn -1.0000 0.0000 0.0000
vn -0.0001 -0.3314 0.9435
vn 0.0000 0.0000 0.9229
vn -0.0000 -0.3851 0.9229
vn 0.0000 0.3406 -0.9402
vn 0.9009 0.3251 -0.2876
vn 0.5583 0.3000 0.7735
vn -0.5583 0.3000 0.7735
vn -0.9009 0.3251 -0.2876
vn 0.5492 0.3937 -0.7371
vn 0.8842 0.3531 0.3057
vn 0.0000 0.3282 0.9446
vn -0.8842 0.3531 0.3057
vn -0.5492 0.3937 -0.7371
vn -0.0000 0.3886 -0.9214
vn 0.8954 0.3493 -0.2761
vn 0.5568 0.2852 0.7802
vn -0.5568 0.2852 0.7802
vn -0.8954 0.3493 -0.2761
vn 0.5653 0.3637 -0.7404
vn 0.9118 0.2472 0.3280
vn 0.0000 0.1753 0.9845
vn -0.9118 0.2472 0.3280
vn -0.5653 0.3637 -0.7404
vn 0.2128 -0.9734 -0.0849
vn 0.1699 -0.9614 0.2166
vn -0.0039 -0.9441 -0.3295
vn 0.0221 -0.6769 0.7357
vn 0.2841 -0.9506 -0.1252
vn 0.1801 -0.9611 0.2092
vn 0.0000 0.0000 -0.3120
usemtl Material.001
s 1
f 1/1/1 2/2/2 3/3/3
f 4/4/4 5/5/5 2/2/2
f 6/6/6 7/7/7 5/5/5
f 8/8/8 9/9/9 7/7/7
f 10/10/10 11/11/11 9/9/9
f 12/12/12 13/13/13 11/11/11
f 14/14/14 15/15/15 13/13/13
f 16/16/16 17/17/17 15/15/15
f 18/18/18 14/14/14 10/10/10
f 18/18/18 19/19/19 17/17/17
f 20/20/20 3/3/3 19/21/19
f 21/22/21 22/23/22 23/24/23
f 19/21/19 24/25/24 25/26/25
f 17/17/17 25/26/25 26/27/26
f 15/15/15 26/27/26 23/24/23
f 13/13/13 23/24/23 27/28/27
f 11/11/11 27/28/27 22/23/22
f 28/29/28 11/11/11 22/23/22
f 7/7/7 28/29/28 21/22/21
f 5/5/5 21/22/21 29/30/29
f 2/2/2 29/30/29 30/31/30
f 3/3/3 30/31/30 24/25/24
f 31/32/31 32/33/32 33/34/33
f 34/35/34 35/36/35 36/37/36
f 37/38/37 38/39/38 39/40/39
f 40/41/40 41/42/41 42/43/42
f 43/44/43 41/42/44 44/45/45
f 45/46/46 31/47/31 33/48/33
f 46/49/47 34/50/34 47/51/48
f 48/52/49 37/53/37 39/54/39
f 49/55/50 40/56/40 50/57/51
f 51/58/52 44/59/45 49/55/53
f 52/60/54 45/46/46 53/61/55
f 54/62/56 46/49/47 47/51/48
f 55/63/57 48/52/49 56/64/58
f 57/65/59 49/55/50 50/57/51
f 58/66/60 51/58/52 49/55/53
f 59/67/61 52/60/54 53/61/55
f 60/68/62 54/62/56 61/69/63
f 62/70/64 55/63/57 56/64/58
f 63/71/65 57/65/59 64/72/66
f 63/71/67 65/73/68 58/66/60
f 66/74/69 59/67/61 67/75/70
f 68/76/71 60/68/62 61/69/63
f 69/77/72 62/70/64 70/78/73
f 71/79/74 63/71/65 64/72/66
f 72/80/75 63/71/67 73/81/76
f 74/82/77 66/74/69 67/75/70
f 75/83/78 68/76/71 76/84/79
f 77/85/80 69/77/72 70/78/73
f 78/86/81 71/79/74 79/87/82
f 80/88/83 73/81/84 78/86/83
f 81/89/85 74/82/77 82/90/86
f 83/91/87 75/83/78 76/84/79
f 84/92/88 77/85/80 85/93/89
f 86/94/90 78/86/81 79/87/82
f 87/95/91 80/88/83 78/86/83
f 88/96/92 81/89/85 82/90/86
f 89/97/93 83/91/87 90/98/94
f 91/99/95 84/92/88 85/93/89
f 92/100/96 86/94/90 93/101/97
f 92/100/98 94/102/99 87/95/98
f 95/103/100 88/96/92 96/104/101
f 97/105/102 89/97/93 90/98/94
f 98/106/103 91/99/95 99/107/104
f 100/108/105 92/100/96 93/101/97
f 101/109/106 102/110/106 92/100/106
f 32/33/32 95/103/100 96/104/101
f 35/36/35 97/105/102 36/37/36
f 38/39/38 98/106/103 99/107/104
f 41/42/41 100/108/105 42/43/42
f 41/42/107 103/111/107 101/109/107
f 104/112/108 96/104/109 105/113/110
f 96/104/109 106/114/111 105/113/110
f 106/114/111 82/90/112 107/115/113
f 82/90/112 108/116/114 107/115/113
f 108/116/114 67/75/115 109/117/116
f 67/75/115 110/118/117 109/117/116
f 110/118/117 53/61/118 111/119/119
f 53/61/118 112/120/120 111/119/119
f 112/120/120 33/48/121 113/121/122
f 33/34/121 104/112/108 113/122/122
f 36/37/123 95/103/124 114/123/125
f 95/103/124 90/98/126 115/124/127
f 90/98/126 81/89/128 115/124/127
f 81/89/128 76/84/129 116/125/130
f 76/84/129 66/74/131 116/125/130
f 66/74/131 61/69/132 117/126/133
f 61/69/132 52/60/134 117/126/133
f 52/60/134 47/51/135 118/127/136
f 47/51/135 31/47/137 118/127/136
f 31/32/137 36/37/123 114/123/125
f 35/36/138 99/107/139 119/128/140
f 99/107/139 89/97/141 119/128/140
f 89/97/141 85/93/142 120/129/143
f 85/93/142 75/83/144 120/129/143
f 75/83/144 70/78/145 121/130/146
f 70/78/145 60/68/147 121/130/146
f 60/68/147 56/64/148 122/131/149
f 56/64/148 46/49/150 122/131/149
f 46/49/150 39/54/151 123/132/152
f 39/40/151 35/36/138 123/133/152
f 42/43/153 98/106/154 124/134/155
f 98/106/154 93/101/156 125/135/157
f 93/101/156 84/92/158 125/135/157
f 84/92/158 79/87/159 126/136/160
f 79/87/159 69/77/161 126/136/160
f 69/77/161 64/72/162 127/137/163
f 64/72/162 55/63/164 127/137/163
f 55/63/164 50/57/165 128/138/166
f 50/57/165 37/53/167 128/138/166
f 37/38/167 42/43/153 124/134/155
f 111/119/168 129/139/169 110/118/170
f 105/113/171 130/140/172 131/141/173
f 112/120/174 132/142/175 133/143/176
f 107/115/177 134/144/178 135/145/179
f 109/117/180 129/139/181 136/146/182
f 105/113/183 137/147/184 104/112/185
f 111/119/186 133/143/187 138/148/188
f 106/114/189 135/145/179 130/140/172
f 113/122/190 137/147/191 132/149/192
f 109/117/193 134/144/178 108/116/194
f 1/1/1 4/4/4 2/2/2
f 4/4/4 6/6/6 5/5/5
f 6/6/6 8/8/8 7/7/7
f 8/8/8 10/10/10 9/9/9
f 10/10/10 12/12/12 11/11/11
f 12/12/12 14/14/14 13/13/13
f 14/14/14 16/16/16 15/15/15
f 16/16/16 18/18/18 17/17/17
f 6/6/6 4/4/4 1/1/1
f 1/1/1 20/20/20 18/18/18
f 18/18/18 16/16/16 14/14/14
f 14/14/14 12/12/12 10/10/10
f 10/10/10 8/8/8 18/18/18
f 8/8/8 6/6/6 18/18/18
f 6/6/6 1/1/1 18/18/18
f 18/18/18 20/20/20 19/19/19
f 20/20/20 1/1/1 3/3/3
f 25/26/25 24/25/24 30/31/30
f 30/31/30 29/30/29 25/26/25
f 29/30/29 21/22/21 25/26/25
f 21/22/21 28/29/28 22/23/22
f 22/23/22 27/28/27 23/24/23
f 23/24/23 26/27/26 21/22/21
f 26/27/26 25/26/25 21/22/21
f 19/21/19 3/3/3 24/25/24
f 17/17/17 19/19/19 25/26/25
f 15/15/15 17/17/17 26/27/26
f 13/13/13 15/15/15 23/24/23
f 11/11/11 13/13/13 27/28/27
f 28/29/28 9/9/9 11/11/11
f 7/7/7 9/9/9 28/29/28
f 5/5/5 7/7/7 21/22/21
f 2/2/2 5/5/5 29/30/29
f 3/3/3 2/2/2 30/31/30
f 31/32/31 114/123/195 32/33/32
f 34/35/34 123/133/196 35/36/35
f 37/38/37 124/134/197 38/39/38
f 40/41/40 44/45/198 41/42/41
f 43/44/43 139/150/199 41/42/44
f 45/46/46 118/127/200 31/47/31
f 46/49/47 123/132/196 34/50/34
f 48/52/49 128/138/201 37/53/37
f 49/55/50 44/59/198 40/56/40
f 51/58/52 43/151/43 44/59/45
f 52/60/54 118/127/200 45/46/46
f 54/62/56 122/131/202 46/49/47
f 55/63/57 128/138/201 48/52/49
f 57/65/59 58/66/203 49/55/50
f 58/66/60 65/73/68 51/58/52
f 59/67/61 117/126/204 52/60/54
f 60/68/62 122/131/202 54/62/56
f 62/70/64 127/137/205 55/63/57
f 63/71/65 58/66/203 57/65/59
f 63/71/67 140/152/199 65/73/68
f 66/74/69 117/126/204 59/67/61
f 68/76/71 121/130/206 60/68/62
f 69/77/72 127/137/205 62/70/64
f 71/79/74 73/81/207 63/71/65
f 72/80/75 140/152/199 63/71/67
f 74/82/77 116/125/208 66/74/69
f 75/83/78 121/130/206 68/76/71
f 77/85/80 126/136/209 69/77/72
f 78/86/81 73/81/207 71/79/74
f 80/88/199 72/80/199 73/81/210
f 81/89/85 116/125/208 74/82/77
f 83/91/87 120/129/211 75/83/78
f 84/92/88 126/136/209 77/85/80
f 86/94/90 87/95/212 78/86/81
f 87/95/213 94/102/214 80/88/215
f 88/96/92 115/124/216 81/89/85
f 89/97/93 120/129/211 83/91/87
f 91/99/95 125/135/217 84/92/88
f 92/100/96 87/95/212 86/94/90
f 92/100/218 102/110/173 94/102/219
f 95/103/100 115/124/216 88/96/92
f 97/105/102 119/128/220 89/97/93
f 98/106/103 125/135/217 91/99/95
f 100/108/105 101/109/221 92/100/96
f 101/109/222 103/111/222 102/110/222
f 32/33/32 114/123/195 95/103/100
f 35/36/35 119/128/220 97/105/102
f 38/39/38 124/134/197 98/106/103
f 41/42/41 101/109/221 100/108/105
f 41/42/223 139/150/224 103/111/225
f 104/112/108 32/33/226 96/104/109
f 96/104/109 88/96/227 106/114/111
f 106/114/111 88/96/227 82/90/112
f 82/90/112 74/82/228 108/116/114
f 108/116/114 74/82/228 67/75/115
f 67/75/115 59/67/229 110/118/117
f 110/118/117 59/67/229 53/61/118
f 53/61/118 45/46/230 112/120/120
f 112/120/120 45/46/230 33/48/121
f 33/34/121 32/33/226 104/112/108
f 36/37/123 97/105/231 95/103/124
f 95/103/124 97/105/231 90/98/126
f 90/98/126 83/91/232 81/89/128
f 81/89/128 83/91/232 76/84/129
f 76/84/129 68/76/233 66/74/131
f 66/74/131 68/76/233 61/69/132
f 61/69/132 54/62/234 52/60/134
f 52/60/134 54/62/234 47/51/135
f 47/51/135 34/50/235 31/47/137
f 31/32/137 34/35/235 36/37/123
f 35/36/138 38/39/236 99/107/139
f 99/107/139 91/99/237 89/97/141
f 89/97/141 91/99/237 85/93/142
f 85/93/142 77/85/238 75/83/144
f 75/83/144 77/85/238 70/78/145
f 70/78/145 62/70/239 60/68/147
f 60/68/147 62/70/239 56/64/148
f 56/64/148 48/52/240 46/49/150
f 46/49/150 48/52/240 39/54/151
f 39/40/151 38/39/236 35/36/138
f 42/43/153 100/108/241 98/106/154
f 98/106/154 100/108/241 93/101/156
f 93/101/156 86/94/242 84/92/158
f 84/92/158 86/94/242 79/87/159
f 79/87/159 71/79/243 69/77/161
f 69/77/161 71/79/243 64/72/162
f 64/72/162 57/65/244 55/63/164
f 55/63/164 57/65/244 50/57/165
f 50/57/165 40/56/245 37/53/167
f 37/38/167 40/41/245 42/43/153
f 111/119/186 138/148/188 129/139/246
f 105/113/171 106/114/189 130/140/172
f 112/120/247 113/121/247 132/142/247
f 107/115/177 108/116/194 134/144/178
f 109/117/248 110/118/170 129/139/169
f 105/113/171 131/141/173 137/147/249
f 111/119/186 112/120/250 133/143/187
f 106/114/189 107/115/177 135/145/179
f 113/122/251 104/112/185 137/147/184
f 109/117/193 136/146/252 134/144/178
