# Blender v2.90.1 OBJ File: 'TreeSwaying.blend'
# www.blender.org
mtllib TreeSwaying8.mtl
o Cylinder.001
v -0.000000 3.449330 -0.400125
v 0.277986 1.291677 -0.383553
v -0.000000 1.291611 -0.473876
v 0.233715 3.449385 -0.324187
v 0.449791 1.291848 -0.147085
v 0.378159 3.449529 -0.125377
v 0.449791 1.292061 0.145207
v 0.378159 3.449708 0.120365
v 0.277986 1.292232 0.381676
v 0.233715 3.449852 0.319175
v -0.000000 1.292298 0.471999
v -0.000000 3.449908 0.395113
v -0.277986 1.292232 0.381676
v -0.233715 3.449852 0.319175
v -0.449791 1.292061 0.145207
v -0.378159 3.449708 0.120365
v -0.449791 1.291848 -0.147085
v -0.378159 3.449529 -0.125377
v -0.277986 1.291677 -0.383553
v -0.233715 3.449385 -0.324187
v 0.630945 0.038788 0.204979
v -0.000000 0.039121 0.663387
v -0.630945 0.038788 0.204979
v -0.000000 0.038157 -0.663443
v -0.389946 0.038249 -0.536742
v -0.630945 0.038490 -0.205035
v -0.389946 0.039029 0.536686
v 0.389946 0.039029 0.536686
v 0.630945 0.038490 -0.205035
v 0.389946 0.038249 -0.536742
v -1.251328 4.698792 -1.653602
v 0.000000 5.251239 -1.507577
v -0.911368 5.268269 -1.230697
v -0.558970 7.699203 -0.796571
v 0.000000 7.089040 -1.678034
v -0.000000 7.685304 -0.978398
v -0.752460 9.573401 -1.150621
v -0.000000 10.154315 -0.825134
v -0.379834 10.170540 -0.713712
v -0.234359 12.607356 -0.823197
v -0.000000 11.990991 -1.267015
v -0.000000 12.595660 -0.898442
v -0.000000 14.234591 -0.749721
v -0.608930 11.668384 -1.198973
v -1.474626 5.275166 -0.437013
v -1.621099 7.174131 -0.503533
v -0.904433 7.730114 -0.322847
v -0.614584 10.194932 -0.380771
v -0.813913 12.081825 -0.682691
v -0.379201 12.637980 -0.626206
v -0.000000 14.234591 -0.749721
v -2.024692 4.763848 0.724340
v -1.474626 5.291683 0.502051
v -0.904433 7.769649 0.264206
v -1.217506 9.715433 0.272399
v -0.614584 10.227694 0.006248
v -0.379201 12.675833 -0.382711
v -0.985269 11.846305 -0.054467
v -0.911369 5.313880 1.295196
v -1.001894 7.311813 1.396850
v -0.558971 7.802619 0.737857
v -0.379834 10.260656 0.338225
v -0.503026 12.228802 0.262763
v -0.234359 12.706456 -0.185721
v -0.000000 14.234591 -0.749721
v 0.000000 4.804055 2.193990
v 0.000000 5.306154 1.572948
v -0.000000 7.813188 0.919802
v -0.000000 9.803214 1.151873
v -0.000000 10.263016 0.451206
v -0.000000 12.718153 -0.110476
v -0.000000 14.234591 -0.749721
v -0.000000 11.956266 0.652876
v 0.911369 5.313880 1.295197
v 1.001894 7.311813 1.396850
v 0.558970 7.802619 0.737857
v 0.379834 10.260656 0.338225
v 0.503026 12.228803 0.262764
v 0.234359 12.706456 -0.185721
v -0.000000 14.234591 -0.749721
v 2.024692 4.763848 0.724340
v 1.474625 5.291683 0.502051
v 0.904433 7.769649 0.264206
v 1.217506 9.715433 0.272399
v 0.614584 10.227694 0.006247
v 0.379201 12.675833 -0.382711
v 0.985269 11.846305 -0.054468
v 1.474625 5.275166 -0.437013
v 1.621099 7.174131 -0.503533
v 0.904433 7.730114 -0.322847
v 0.614584 10.194932 -0.380770
v 0.813913 12.081825 -0.682691
v 0.379201 12.637980 -0.626206
v -0.000000 14.234591 -0.749721
v 1.251328 4.698792 -1.653602
v 0.911369 5.268269 -1.230695
v 0.558971 7.699203 -0.796571
v 0.752460 9.573401 -1.150620
v 0.379834 10.170540 -0.713712
v 0.234359 12.607356 -0.823197
v 0.608930 11.668384 -1.198973
v -0.000000 14.234591 -0.749721
v -0.000000 14.234591 -0.749721
v 0.000000 2.293847 -2.499711
v 1.811692 1.964855 -2.442874
v 2.421557 2.311522 -0.740923
v 2.931380 2.000072 1.002020
v 1.496605 2.340121 2.104857
v 0.000000 2.021837 3.131081
v -1.496606 2.340121 2.104857
v -2.931380 2.000072 1.002020
v -2.421557 2.311522 -0.740923
v -1.811692 1.964855 -2.442874
v 0.000000 4.349721 -2.502582
v 2.450959 4.396078 -0.723440
v 1.514776 4.471085 2.155273
v -1.514776 4.471085 2.155272
v -2.450959 4.396078 -0.723440
v 1.212827 6.765157 -1.623976
v 1.962396 6.928531 0.676805
v 0.000000 7.029502 2.098765
v -1.962396 6.928531 0.676805
v -1.212827 6.765157 -1.623976
v -0.000000 9.199697 -1.635674
v 1.473833 9.302283 -0.570628
v 0.910878 9.468271 1.152654
v -0.910879 9.468271 1.152654
v -1.473832 9.302283 -0.570628
v -0.000000 2.956625 -0.002148
v -0.000000 2.956625 -0.002148
v -0.000000 2.956625 -0.002148
v -0.000000 2.956625 -0.002148
v -0.000000 2.956625 -0.002148
v -0.000000 2.956625 -0.002148
v -0.000000 2.956625 -0.002148
v -0.000000 2.956625 -0.002148
v -0.000000 2.956625 -0.002148
v -0.000000 2.956625 -0.002148
v -0.000000 14.234591 -0.749721
v -0.000000 14.234591 -0.749721
vt 0.702073 0.269118
vt 0.670069 0.068233
vt 0.684803 0.058931
vt 0.698826 0.262365
vt 0.657348 0.076051
vt 0.695745 0.259668
vt 0.645532 0.082450
vt 0.692863 0.260156
vt 0.633833 0.087497
vt 0.691098 0.263854
vt 0.621692 0.091320
vt 0.691449 0.269796
vt 0.608542 0.094233
vt 0.693726 0.279162
vt 0.593678 0.096553
vt 0.700340 0.292561
vt 0.576200 0.098925
vt 0.700831 0.283559
vt 0.555241 0.102610
vt 0.703132 0.279922
vt 0.703132 0.048130
vt 0.625973 0.047497
vt 0.618279 0.049760
vt 0.609704 0.036308
vt 0.616796 0.019855
vt 0.605172 0.000095
vt 0.606365 0.021717
vt 0.614449 0.045536
vt 0.622760 0.050519
vt 0.626545 0.041638
vt 0.623838 0.032657
vt 0.000095 0.658106
vt 0.074941 0.714435
vt 0.010296 0.711678
vt 0.069376 0.440504
vt 0.111558 0.371623
vt 0.110892 0.437562
vt 0.172364 0.158099
vt 0.188626 0.206572
vt 0.169534 0.198027
vt 0.229798 0.061704
vt 0.237246 0.037049
vt 0.237749 0.062469
vt 0.267277 0.000095
vt 0.220178 0.032815
vt 0.481263 0.710217
vt 0.555050 0.652010
vt 0.546079 0.705964
vt 0.436860 0.367941
vt 0.480631 0.435869
vt 0.439030 0.433883
vt 0.356041 0.204670
vt 0.371194 0.155838
vt 0.374934 0.195691
vt 0.303581 0.036294
vt 0.311587 0.060775
vt 0.303656 0.061720
vt 0.272232 0.000497
vt 0.320528 0.031680
vt 0.425468 0.657202
vt 0.424541 0.697886
vt 0.398615 0.445923
vt 0.326098 0.168546
vt 0.335312 0.207768
vt 0.296116 0.064295
vt 0.292544 0.038910
vt 0.371330 0.703852
vt 0.349643 0.384678
vt 0.356172 0.442584
vt 0.315517 0.216516
vt 0.284948 0.041436
vt 0.287640 0.064519
vt 0.271748 0.000943
vt 0.324683 0.658387
vt 0.324244 0.693355
vt 0.315943 0.454252
vt 0.289906 0.175041
vt 0.293733 0.215524
vt 0.279374 0.066912
vt 0.270604 0.001296
vt 0.277412 0.042046
vt 0.277807 0.701278
vt 0.274426 0.390622
vt 0.275059 0.447226
vt 0.272505 0.220899
vt 0.270490 0.043046
vt 0.270747 0.065925
vt 0.270013 0.001080
vt 0.230050 0.659402
vt 0.231222 0.694339
vt 0.234343 0.455157
vt 0.254068 0.175448
vt 0.251161 0.216007
vt 0.262145 0.067107
vt 0.263545 0.042203
vt 0.184384 0.705788
vt 0.199104 0.386373
vt 0.193879 0.444391
vt 0.229406 0.217493
vt 0.255993 0.041764
vt 0.253826 0.064903
vt 0.269426 0.001274
vt 0.129394 0.660373
vt 0.131183 0.700924
vt 0.151542 0.448678
vt 0.217738 0.169778
vt 0.209418 0.209197
vt 0.245346 0.064872
vt 0.248340 0.039412
vt 0.268858 0.001081
vt 0.268268 0.000964
vt 0.107773 0.899041
vt 0.168860 0.856225
vt 0.207836 0.841806
vt 0.245440 0.830762
vt 0.279135 0.829448
vt 0.312670 0.830119
vt 0.350370 0.840458
vt 0.389886 0.854267
vt 0.452366 0.896360
vt 0.555050 0.980425
vt 0.008066 0.984276
vt 0.074279 0.653190
vt 0.183122 0.655461
vt 0.277309 0.654517
vt 0.371531 0.653441
vt 0.480557 0.648766
vt 0.160617 0.376343
vt 0.237738 0.385919
vt 0.310997 0.385095
vt 0.387902 0.373776
vt 0.513026 0.352291
vt 0.035077 0.357721
vt 0.197777 0.162426
vt 0.236242 0.171379
vt 0.271973 0.174035
vt 0.307635 0.170567
vt 0.345888 0.160742
vt 0.285065 0.989718
vt 0.275600 0.989611
vt 0.273458 0.991491
vt 0.288737 0.999905
vt 0.287890 0.996674
vt 0.280695 0.985174
vt 0.278064 0.988467
vt 0.283351 0.986926
vt 0.271902 0.994213
vt 0.286247 0.993946
vt 0.270300 0.996909
vt 0.267943 0.000324
vt 0.272773 0.000118
vt 0.271122 0.000960
vn 0.0000 0.6562 -0.7546
vn 0.5852 0.0932 -0.8055
vn -0.0000 0.0931 -0.9957
vn 0.4433 0.6563 -0.6106
vn 0.9469 0.0936 -0.3077
vn 0.7172 0.6565 -0.2335
vn 0.9469 0.0940 0.3076
vn 0.7172 0.6569 0.2326
vn 0.5852 0.0944 0.8054
vn 0.4433 0.6572 0.6096
vn -0.0000 0.0945 0.9955
vn -0.0000 0.6573 0.7537
vn -0.5852 0.0944 0.8054
vn -0.4433 0.6572 0.6096
vn -0.9469 0.0940 0.3076
vn -0.7172 0.6569 0.2326
vn -0.9469 0.0936 -0.3077
vn -0.7172 0.6565 -0.2335
vn -0.5852 0.0932 -0.8055
vn -0.4433 0.6563 -0.6106
vn 0.7704 -0.5862 0.2507
vn 0.0000 -0.5858 0.8105
vn -0.7704 -0.5862 0.2507
vn 0.0000 -0.5869 -0.8096
vn -0.4761 -0.5868 -0.6549
vn -0.7704 -0.5865 -0.2499
vn -0.4761 -0.5859 0.6558
vn 0.4761 -0.5859 0.6558
vn 0.7704 -0.5865 -0.2499
vn 0.4761 -0.5868 -0.6549
vn 0.4036 -0.7152 0.5707
vn -0.0000 -0.7200 0.6940
vn 0.4121 -0.6889 0.5963
vn 0.3555 -0.7585 0.5462
vn 0.0000 -0.7520 0.6592
vn 0.0000 -0.7611 0.6486
vn 0.3987 -0.6821 0.6130
vn -0.0000 -0.6566 0.7543
vn 0.3875 -0.6895 0.6119
vn 0.4593 -0.5195 0.7205
vn -0.0000 -0.4961 0.8683
vn -0.0000 -0.5205 0.8539
vn -0.0060 -0.1556 -0.9878
vn -0.2222 0.2191 -0.9501
vn -0.5420 0.2678 -0.7966
vn 0.6308 -0.7426 0.2251
vn 0.5703 -0.7862 0.2381
vn 0.5574 -0.7956 0.2372
vn 0.6435 -0.7142 0.2753
vn 0.7435 -0.5791 0.3345
vn 0.7264 -0.6015 0.3324
vn -0.7783 -0.4970 0.3836
vn -0.8829 0.3232 -0.3406
vn 0.6288 -0.7544 -0.1883
vn 0.6419 -0.7451 -0.1809
vn 0.5701 -0.8118 -0.1263
vn 0.6300 -0.7645 -0.1363
vn 0.6121 -0.7819 -0.1181
vn 0.7432 -0.6537 -0.1428
vn -0.8769 0.4264 0.2220
vn 0.3794 -0.7772 -0.5020
vn 0.3450 -0.8394 -0.4200
vn 0.3372 -0.8494 -0.4060
vn 0.3839 -0.8018 -0.4580
vn 0.4595 -0.7133 -0.5292
vn 0.4489 -0.7327 -0.5114
vn -0.5457 0.4826 0.6850
vn 0.0357 0.1630 0.9860
vn 0.0000 -0.7771 -0.6294
vn 0.0000 -0.7776 -0.6287
vn -0.0000 -0.8442 -0.5360
vn -0.0000 -0.8133 -0.5819
vn 0.0000 -0.8361 -0.5486
vn 0.0000 -0.7366 -0.6763
vn -0.8802 0.4655 0.0927
vn -0.3523 0.4906 0.7970
vn -0.3794 -0.7772 -0.5020
vn -0.3450 -0.8394 -0.4200
vn -0.3371 -0.8494 -0.4060
vn -0.3839 -0.8018 -0.4580
vn -0.4595 -0.7133 -0.5292
vn -0.4489 -0.7327 -0.5114
vn 0.5457 0.4826 0.6850
vn 0.3523 0.4906 0.7970
vn -0.6288 -0.7544 -0.1883
vn -0.6419 -0.7451 -0.1809
vn -0.5701 -0.8118 -0.1263
vn -0.6300 -0.7645 -0.1363
vn -0.6121 -0.7819 -0.1181
vn -0.7432 -0.6537 -0.1428
vn 0.7118 0.4505 0.5389
vn -0.6308 -0.7426 0.2251
vn -0.5703 -0.7862 0.2381
vn -0.5574 -0.7956 0.2372
vn -0.6435 -0.7142 0.2753
vn -0.7435 -0.5791 0.3345
vn -0.7264 -0.6015 0.3324
vn 0.9295 0.3476 -0.1232
vn 0.1393 0.2055 0.9687
vn -0.4036 -0.7152 0.5707
vn -0.4121 -0.6889 0.5963
vn -0.3555 -0.7585 0.5462
vn -0.3987 -0.6821 0.6130
vn -0.3875 -0.6895 0.6119
vn -0.4593 -0.5195 0.7205
vn 0.7922 0.2827 -0.5409
vn 0.2222 0.2191 -0.9501
vn 0.0000 0.3596 -0.9331
vn 0.5469 0.3492 -0.7609
vn 0.5325 0.4157 -0.7373
vn 0.8846 0.3638 -0.2917
vn 0.8935 0.3487 0.2830
vn 0.8627 0.4237 0.2759
vn 0.5478 0.3706 0.7500
vn -0.0000 0.3483 0.9374
vn 0.0000 0.4286 0.9035
vn -0.5478 0.3706 0.7500
vn -0.8935 0.3487 0.2830
vn -0.8627 0.4237 0.2759
vn -0.8846 0.3638 -0.2917
vn -0.5469 0.3492 -0.7609
vn -0.5325 0.4157 -0.7373
vn -0.0000 0.3565 -0.9343
vn 0.5402 0.3714 -0.7552
vn 0.0000 0.4156 -0.9095
vn 0.8774 0.3743 -0.3001
vn 0.8544 0.4312 -0.2899
vn 0.8752 0.3994 0.2729
vn 0.5448 0.4032 0.7352
vn 0.5289 0.4562 0.7156
vn -0.0000 0.4166 0.9091
vn -0.5448 0.4032 0.7352
vn -0.5289 0.4562 0.7156
vn -0.8752 0.3994 0.2729
vn -0.8774 0.3743 -0.3001
vn -0.8544 0.4312 -0.2899
vn -0.5402 0.3714 -0.7552
vn 0.0000 0.2842 -0.9588
vn 0.5463 0.2951 -0.7839
vn 0.5397 0.3381 -0.7710
vn 0.8906 0.3297 -0.3133
vn 0.8963 0.3605 0.2584
vn 0.8761 0.4096 0.2542
vn 0.5503 0.4033 0.7311
vn 0.0000 0.4018 0.9157
vn 0.0000 0.4540 0.8910
vn -0.5503 0.4033 0.7311
vn -0.8963 0.3605 0.2584
vn -0.8761 0.4096 0.2542
vn -0.8906 0.3297 -0.3133
vn -0.5463 0.2951 -0.7839
vn -0.5397 0.3381 -0.7710
vn -0.0000 0.1674 -0.9859
vn 0.5666 0.1969 -0.8001
vn 0.0000 0.2121 -0.9772
vn 0.9104 0.2493 -0.3303
vn 0.9013 0.2904 -0.3215
vn 0.9057 0.3288 0.2675
vn 0.5631 0.3816 0.7330
vn 0.5516 0.4144 0.7238
vn 0.0000 0.4080 0.9130
vn -0.5631 0.3816 0.7330
vn -0.5516 0.4144 0.7238
vn -0.9057 0.3288 0.2675
vn -0.9104 0.2493 -0.3303
vn -0.9013 0.2904 -0.3215
vn -0.5666 0.1969 -0.8001
vn 0.2838 -0.9554 -0.0817
vn 0.2040 -0.9769 -0.0640
vn 0.1403 -0.9727 -0.1849
vn -0.1792 -0.9505 0.2539
vn -0.0320 -0.1739 0.9836
vn 0.0000 0.0000 1.0000
vn -0.4492 0.8933 -0.0166
vn 0.0000 0.0000 0.0081
vn -0.4494 0.8933 0.0081
vn -0.2835 -0.9554 -0.0822
vn -0.0122 -0.0834 0.2120
vn -0.0415 -0.1408 0.7538
vn -0.0000 0.9559 0.2935
vn 0.0000 0.0000 0.3061
vn 0.0003 0.9520 0.3061
vn -0.1763 -0.9505 0.2559
vn -0.0000 -0.6650 0.7469
vn 0.0000 -0.9665 0.2565
vn 0.2832 -0.9555 -0.0822
vn 0.1042 -0.3535 0.9296
vn 0.0000 0.0000 0.7788
vn -0.2326 -0.9690 0.0839
vn 0.0035 -0.0065 -1.0000
vn 0.0000 0.0000 -1.0000
vn 0.0023 -0.0042 -1.0000
vn 0.0078 -0.9582 -0.2860
vn -0.1403 -0.9727 -0.1849
vn 0.0000 -0.7411 0.6714
vn 0.3637 -0.7473 0.5562
vn -0.0000 -0.6472 0.7623
vn 0.4742 -0.4836 0.7357
vn 0.0000 0.0000 0.0000
vn 0.6160 -0.7561 0.2209
vn 0.6594 -0.6955 0.2854
vn 0.5847 -0.8004 -0.1324
vn 0.7673 -0.6222 -0.1556
vn 0.3778 -0.7798 -0.4991
vn 0.4075 -0.7729 -0.4863
vn -0.0000 -0.8328 -0.5536
vn 0.0000 -0.7078 -0.7064
vn -0.3778 -0.7798 -0.4991
vn -0.4075 -0.7729 -0.4863
vn -0.9678 -0.2142 0.1319
vn -0.7493 -0.5639 0.3471
vn -0.5847 -0.8004 -0.1324
vn -0.7673 -0.6222 -0.1556
vn 0.1104 -0.3248 -0.9393
vn 0.4538 -0.8522 0.2604
vn 0.1388 -0.2222 -0.9651
vn -0.6160 -0.7561 0.2209
vn -0.6594 -0.6955 0.2854
vn 0.9126 0.3534 -0.2057
vn 0.1333 0.0516 0.9897
vn -0.3637 -0.7473 0.5562
vn -0.4742 -0.4836 0.7357
vn 0.0000 1.0000 -0.0000
vn -0.0001 -0.4170 0.9089
vn 0.0000 0.0000 0.9344
vn 0.0000 -0.3561 0.9344
vn 0.0000 0.3181 -0.9481
vn 0.9028 0.3181 -0.2894
vn 0.5549 0.3185 0.7685
vn -0.5549 0.3185 0.7685
vn -0.9028 0.3181 -0.2894
vn 0.5433 0.3441 -0.7658
vn 0.8877 0.3723 0.2710
vn 0.0000 0.3899 0.9208
vn -0.8877 0.3723 0.2710
vn -0.5433 0.3441 -0.7658
vn -0.0000 0.2681 -0.9634
vn 0.8990 0.3120 -0.3074
vn 0.5509 0.3825 0.7417
vn -0.5509 0.3825 0.7417
vn -0.8990 0.3120 -0.3074
vn 0.5622 0.1830 -0.8065
vn 0.9136 0.3155 0.2566
vn -0.0000 0.3974 0.9176
vn -0.9136 0.3155 0.2566
vn -0.5622 0.1830 -0.8065
vn 0.2016 -0.9770 -0.0698
vn 0.1750 -0.9506 0.2563
vn -0.0078 -0.9582 -0.2859
vn -0.0068 -0.6730 0.7396
vn 0.2815 -0.9555 -0.0884
vn 0.1805 -0.9507 0.2523
vn 0.0000 0.0000 -0.2940
usemtl Material.001
s 1
f 1/1/1 2/2/2 3/3/3
f 4/4/4 5/5/5 2/2/2
f 6/6/6 7/7/7 5/5/5
f 8/8/8 9/9/9 7/7/7
f 10/10/10 11/11/11 9/9/9
f 12/12/12 13/13/13 11/11/11
f 14/14/14 15/15/15 13/13/13
f 16/16/16 17/17/17 15/15/15
f 18/18/18 14/14/14 10/10/10
f 18/18/18 19/19/19 17/17/17
f 20/20/20 3/3/3 19/21/19
f 21/22/21 22/23/22 23/24/23
f 19/21/19 24/25/24 25/26/25
f 17/17/17 25/26/25 26/27/26
f 15/15/15 26/27/26 23/24/23
f 13/13/13 23/24/23 27/28/27
f 11/11/11 27/28/27 22/23/22
f 28/29/28 11/11/11 22/23/22
f 7/7/7 28/29/28 21/22/21
f 5/5/5 21/22/21 29/30/29
f 2/2/2 29/30/29 30/31/30
f 3/3/3 30/31/30 24/25/24
f 31/32/31 32/33/32 33/34/33
f 34/35/34 35/36/35 36/37/36
f 37/38/37 38/39/38 39/40/39
f 40/41/40 41/42/41 42/43/42
f 43/44/43 41/42/44 44/45/45
f 45/46/46 31/47/31 33/48/33
f 46/49/47 34/50/34 47/51/48
f 48/52/49 37/53/37 39/54/39
f 49/55/50 40/56/40 50/57/51
f 51/58/52 44/59/45 49/55/53
f 52/60/54 45/46/46 53/61/55
f 54/62/56 46/49/47 47/51/48
f 55/63/57 48/52/49 56/64/58
f 57/65/59 49/55/50 50/57/51
f 58/66/60 51/58/52 49/55/53
f 59/67/61 52/60/54 53/61/55
f 60/68/62 54/62/56 61/69/63
f 62/70/64 55/63/57 56/64/58
f 63/71/65 57/65/59 64/72/66
f 63/71/67 65/73/68 58/66/60
f 66/74/69 59/67/61 67/75/70
f 68/76/71 60/68/62 61/69/63
f 69/77/72 62/70/64 70/78/73
f 71/79/74 63/71/65 64/72/66
f 72/80/75 63/71/67 73/81/76
f 74/82/77 66/74/69 67/75/70
f 75/83/78 68/76/71 76/84/79
f 77/85/80 69/77/72 70/78/73
f 78/86/81 71/79/74 79/87/82
f 80/88/83 73/81/84 78/86/83
f 81/89/85 74/82/77 82/90/86
f 83/91/87 75/83/78 76/84/79
f 84/92/88 77/85/80 85/93/89
f 86/94/90 78/86/81 79/87/82
f 87/95/91 80/88/83 78/86/83
f 88/96/92 81/89/85 82/90/86
f 89/97/93 83/91/87 90/98/94
f 91/99/95 84/92/88 85/93/89
f 92/100/96 86/94/90 93/101/97
f 92/100/98 94/102/99 87/95/98
f 95/103/100 88/96/92 96/104/101
f 97/105/102 89/97/93 90/98/94
f 98/106/103 91/99/95 99/107/104
f 100/108/105 92/100/96 93/101/97
f 101/109/106 102/110/106 92/100/106
f 32/33/32 95/103/100 96/104/101
f 35/36/35 97/105/102 36/37/36
f 38/39/38 98/106/103 99/107/104
f 41/42/41 100/108/105 42/43/42
f 41/42/107 103/111/107 101/109/107
f 104/112/108 96/104/109 105/113/110
f 96/104/109 106/114/111 105/113/110
f 106/114/111 82/90/112 107/115/113
f 82/90/112 108/116/114 107/115/113
f 108/116/114 67/75/115 109/117/116
f 67/75/115 110/118/117 109/117/116
f 110/118/117 53/61/118 111/119/119
f 53/61/118 112/120/120 111/119/119
f 112/120/120 33/48/121 113/121/122
f 33/34/121 104/112/108 113/122/122
f 36/37/123 95/103/124 114/123/125
f 95/103/124 90/98/126 115/124/127
f 90/98/126 81/89/128 115/124/127
f 81/89/128 76/84/129 116/125/130
f 76/84/129 66/74/131 116/125/130
f 66/74/131 61/69/132 117/126/133
f 61/69/132 52/60/134 117/126/133
f 52/60/134 47/51/135 118/127/136
f 47/51/135 31/47/137 118/127/136
f 31/32/137 36/37/123 114/123/125
f 35/36/138 99/107/139 119/128/140
f 99/107/139 89/97/141 119/128/140
f 89/97/141 85/93/142 120/129/143
f 85/93/142 75/83/144 120/129/143
f 75/83/144 70/78/145 121/130/146
f 70/78/145 60/68/147 121/130/146
f 60/68/147 56/64/148 122/131/149
f 56/64/148 46/49/150 122/131/149
f 46/49/150 39/54/151 123/132/152
f 39/40/151 35/36/138 123/133/152
f 42/43/153 98/106/154 124/134/155
f 98/106/154 93/101/156 125/135/157
f 93/101/156 84/92/158 125/135/157
f 84/92/158 79/87/159 126/136/160
f 79/87/159 69/77/161 126/136/160
f 69/77/161 64/72/162 127/137/163
f 64/72/162 55/63/164 127/137/163
f 55/63/164 50/57/165 128/138/166
f 50/57/165 37/53/167 128/138/166
f 37/38/167 42/43/153 124/134/155
f 111/119/168 129/139/169 110/118/170
f 105/113/171 130/140/172 131/141/173
f 112/120/174 132/142/175 133/143/176
f 107/115/177 134/144/178 135/145/179
f 109/117/180 129/139/181 136/146/182
f 105/113/183 137/147/184 104/112/185
f 111/119/186 133/143/187 138/148/188
f 106/114/189 135/145/179 130/140/172
f 113/122/190 137/147/191 132/149/192
f 109/117/193 134/144/178 108/116/194
f 1/1/1 4/4/4 2/2/2
f 4/4/4 6/6/6 5/5/5
f 6/6/6 8/8/8 7/7/7
f 8/8/8 10/10/10 9/9/9
f 10/10/10 12/12/12 11/11/11
f 12/12/12 14/14/14 13/13/13
f 14/14/14 16/16/16 15/15/15
f 16/16/16 18/18/18 17/17/17
f 6/6/6 4/4/4 1/1/1
f 1/1/1 20/20/20 18/18/18
f 18/18/18 16/16/16 14/14/14
f 14/14/14 12/12/12 10/10/10
f 10/10/10 8/8/8 18/18/18
f 8/8/8 6/6/6 18/18/18
f 6/6/6 1/1/1 18/18/18
f 18/18/18 20/20/20 19/19/19
f 20/20/20 1/1/1 3/3/3
f 25/26/25 24/25/24 30/31/30
f 30/31/30 29/30/29 25/26/25
f 29/30/29 21/22/21 25/26/25
f 21/22/21 28/29/28 22/23/22
f 22/23/22 27/28/27 23/24/23
f 23/24/23 26/27/26 21/22/21
f 26/27/26 25/26/25 21/22/21
f 19/21/19 3/3/3 24/25/24
f 17/17/17 19/19/19 25/26/25
f 15/15/15 17/17/17 26/27/26
f 13/13/13 15/15/15 23/24/23
f 11/11/11 13/13/13 27/28/27
f 28/29/28 9/9/9 11/11/11
f 7/7/7 9/9/9 28/29/28
f 5/5/5 7/7/7 21/22/21
f 2/2/2 5/5/5 29/30/29
f 3/3/3 2/2/2 30/31/30
f 31/32/31 114/123/195 32/33/32
f 34/35/34 123/133/196 35/36/35
f 37/38/37 124/134/197 38/39/38
f 40/41/40 44/45/198 41/42/41
f 43/44/43 139/150/199 41/42/44
f 45/46/46 118/127/200 31/47/31
f 46/49/47 123/132/196 34/50/34
f 48/52/49 128/138/201 37/53/37
f 49/55/50 44/59/198 40/56/40
f 51/58/52 43/151/43 44/59/45
f 52/60/54 118/127/200 45/46/46
f 54/62/56 122/131/202 46/49/47
f 55/63/57 128/138/201 48/52/49
f 57/65/59 58/66/203 49/55/50
f 58/66/60 65/73/68 51/58/52
f 59/67/61 117/126/204 52/60/54
f 60/68/62 122/131/202 54/62/56
f 62/70/64 127/137/205 55/63/57
f 63/71/65 58/66/203 57/65/59
f 63/71/67 140/152/199 65/73/68
f 66/74/69 117/126/204 59/67/61
f 68/76/71 121/130/206 60/68/62
f 69/77/72 127/137/205 62/70/64
f 71/79/74 73/81/207 63/71/65
f 72/80/75 140/152/199 63/71/67
f 74/82/77 116/125/208 66/74/69
f 75/83/78 121/130/206 68/76/71
f 77/85/80 126/136/209 69/77/72
f 78/86/81 73/81/207 71/79/74
f 80/88/210 72/80/210 73/81/211
f 81/89/85 116/125/208 74/82/77
f 83/91/87 120/129/212 75/83/78
f 84/92/88 126/136/209 77/85/80
f 86/94/90 87/95/213 78/86/81
f 87/95/214 94/102/215 80/88/216
f 88/96/92 115/124/217 81/89/85
f 89/97/93 120/129/212 83/91/87
f 91/99/95 125/135/218 84/92/88
f 92/100/96 87/95/213 86/94/90
f 92/100/219 102/110/173 94/102/220
f 95/103/100 115/124/217 88/96/92
f 97/105/102 119/128/221 89/97/93
f 98/106/103 125/135/218 91/99/95
f 100/108/105 101/109/222 92/100/96
f 101/109/223 103/111/223 102/110/223
f 32/33/32 114/123/195 95/103/100
f 35/36/35 119/128/221 97/105/102
f 38/39/38 124/134/197 98/106/103
f 41/42/41 101/109/222 100/108/105
f 41/42/224 139/150/225 103/111/226
f 104/112/108 32/33/227 96/104/109
f 96/104/109 88/96/228 106/114/111
f 106/114/111 88/96/228 82/90/112
f 82/90/112 74/82/229 108/116/114
f 108/116/114 74/82/229 67/75/115
f 67/75/115 59/67/230 110/118/117
f 110/118/117 59/67/230 53/61/118
f 53/61/118 45/46/231 112/120/120
f 112/120/120 45/46/231 33/48/121
f 33/34/121 32/33/227 104/112/108
f 36/37/123 97/105/232 95/103/124
f 95/103/124 97/105/232 90/98/126
f 90/98/126 83/91/233 81/89/128
f 81/89/128 83/91/233 76/84/129
f 76/84/129 68/76/234 66/74/131
f 66/74/131 68/76/234 61/69/132
f 61/69/132 54/62/235 52/60/134
f 52/60/134 54/62/235 47/51/135
f 47/51/135 34/50/236 31/47/137
f 31/32/137 34/35/236 36/37/123
f 35/36/138 38/39/237 99/107/139
f 99/107/139 91/99/238 89/97/141
f 89/97/141 91/99/238 85/93/142
f 85/93/142 77/85/239 75/83/144
f 75/83/144 77/85/239 70/78/145
f 70/78/145 62/70/240 60/68/147
f 60/68/147 62/70/240 56/64/148
f 56/64/148 48/52/241 46/49/150
f 46/49/150 48/52/241 39/54/151
f 39/40/151 38/39/237 35/36/138
f 42/43/153 100/108/242 98/106/154
f 98/106/154 100/108/242 93/101/156
f 93/101/156 86/94/243 84/92/158
f 84/92/158 86/94/243 79/87/159
f 79/87/159 71/79/244 69/77/161
f 69/77/161 71/79/244 64/72/162
f 64/72/162 57/65/245 55/63/164
f 55/63/164 57/65/245 50/57/165
f 50/57/165 40/56/246 37/53/167
f 37/38/167 40/41/246 42/43/153
f 111/119/186 138/148/188 129/139/247
f 105/113/171 106/114/189 130/140/172
f 112/120/248 113/121/248 132/142/248
f 107/115/177 108/116/194 134/144/178
f 109/117/249 110/118/170 129/139/169
f 105/113/171 131/141/173 137/147/250
f 111/119/186 112/120/251 133/143/187
f 106/114/189 107/115/177 135/145/179
f 113/122/252 104/112/185 137/147/184
f 109/117/193 136/146/253 134/144/178
